<svg xmlns="http://www.w3.org/2000/svg" xmlns:xlink="http://www.w3.org/1999/xlink" width="100" zoomAndPan="magnify" viewBox="0 0 75 56.249996" height="75" preserveAspectRatio="xMidYMid meet" version="1.0"><defs><clipPath id="342586e8d9"><path d="M 0.492188 0 L 74.503906 0 L 74.503906 55.511719 L 0.492188 55.511719 Z M 0.492188 0 " clip-rule="nonzero"/></clipPath><clipPath id="a6ae0cafc0"><path d="M 16.992188 0 L 57.699219 0 L 57.699219 40.707031 L 16.992188 40.707031 Z M 16.992188 0 " clip-rule="nonzero"/></clipPath><clipPath id="472a89877d"><path d="M 33.5625 41 L 41.703125 41 L 41.703125 49.695312 L 33.5625 49.695312 Z M 33.5625 41 " clip-rule="nonzero"/></clipPath><clipPath id="3b989dc053"><path d="M 38 41 L 41.703125 41 L 41.703125 43 L 38 43 Z M 38 41 " clip-rule="nonzero"/></clipPath><clipPath id="ad9083ea17"><path d="M 38 37.851562 L 40 37.851562 L 40 42 L 38 42 Z M 38 37.851562 " clip-rule="nonzero"/></clipPath><clipPath id="ce7f940967"><path d="M 38 37.851562 L 40 37.851562 L 40 42 L 38 42 Z M 38 37.851562 " clip-rule="nonzero"/></clipPath><clipPath id="840e0f1abe"><path d="M 38 41 L 41.703125 41 L 41.703125 43 L 38 43 Z M 38 41 " clip-rule="nonzero"/></clipPath></defs><g clip-path="url(#342586e8d9)"><path fill="#ffffff" d="M 0.492188 0 L 74.507812 0 L 74.507812 181.332031 L 0.492188 181.332031 Z M 0.492188 0 " fill-opacity="1" fill-rule="nonzero"/><path fill="#ffffff" d="M 0.492188 0 L 74.507812 0 L 74.507812 55.511719 L 0.492188 55.511719 Z M 0.492188 0 " fill-opacity="1" fill-rule="nonzero"/><path fill="#ffffff" d="M 0.492188 0 L 74.507812 0 L 74.507812 55.511719 L 0.492188 55.511719 Z M 0.492188 0 " fill-opacity="1" fill-rule="nonzero"/></g><path fill="#8c52ff" d="M 32.257812 2.90625 L 30.804688 2.90625 L 30.804688 5.816406 L 32.257812 5.816406 L 32.257812 2.90625 " fill-opacity="1" fill-rule="nonzero"/><path fill="#8c52ff" d="M 47.523438 2.90625 L 46.070312 2.90625 L 46.070312 5.816406 L 47.523438 5.816406 L 47.523438 2.90625 " fill-opacity="1" fill-rule="nonzero"/><path fill="#8c52ff" d="M 30.804688 24.714844 L 32.257812 24.714844 L 32.257812 21.808594 L 30.804688 21.808594 L 30.804688 24.714844 " fill-opacity="1" fill-rule="nonzero"/><g clip-path="url(#a6ae0cafc0)"><path fill="#8c52ff" d="M 50.429688 34.890625 C 50.832031 34.890625 51.15625 34.566406 51.15625 34.164062 L 51.15625 22.535156 C 51.15625 22.132812 50.832031 21.808594 50.429688 21.808594 L 48.976562 21.808594 L 48.976562 26.167969 L 44.617188 26.167969 L 44.617188 21.808594 L 38.074219 21.808594 L 38.074219 34.890625 L 36.621094 34.890625 L 36.621094 21.808594 L 33.710938 21.808594 L 33.710938 26.167969 L 29.351562 26.167969 L 29.351562 21.808594 L 24.261719 21.808594 C 23.863281 21.808594 23.535156 22.132812 23.535156 22.535156 L 23.535156 34.164062 C 23.535156 34.566406 23.863281 34.890625 24.261719 34.890625 L 18.445312 34.890625 L 18.445312 17.445312 L 56.246094 17.445312 L 56.246094 34.890625 Z M 56.972656 0 C 56.574219 0 56.246094 0.328125 56.246094 0.726562 L 56.246094 15.992188 L 50.429688 15.992188 C 50.832031 15.992188 51.15625 15.664062 51.15625 15.265625 L 51.15625 3.632812 C 51.15625 3.234375 50.832031 2.90625 50.429688 2.90625 L 48.976562 2.90625 L 48.976562 7.269531 L 44.617188 7.269531 L 44.617188 2.90625 L 38.074219 2.90625 L 38.074219 15.992188 L 36.621094 15.992188 L 36.621094 2.90625 L 33.710938 2.90625 L 33.710938 7.269531 L 29.351562 7.269531 L 29.351562 2.90625 L 24.261719 2.90625 C 23.863281 2.90625 23.535156 3.234375 23.535156 3.632812 L 23.535156 15.265625 C 23.535156 15.664062 23.863281 15.992188 24.261719 15.992188 L 18.445312 15.992188 L 18.445312 0.726562 C 18.445312 0.328125 18.121094 0 17.71875 0 C 17.320312 0 16.992188 0.328125 16.992188 0.726562 L 16.992188 39.980469 C 16.992188 40.378906 17.320312 40.707031 17.71875 40.707031 C 18.121094 40.707031 18.445312 40.378906 18.445312 39.980469 L 18.445312 36.347656 L 56.246094 36.347656 L 56.246094 39.980469 C 56.246094 40.378906 56.574219 40.707031 56.972656 40.707031 C 57.375 40.707031 57.699219 40.378906 57.699219 39.980469 L 57.699219 0.726562 C 57.699219 0.328125 57.375 0 56.972656 0 " fill-opacity="1" fill-rule="nonzero"/></g><path fill="#8c52ff" d="M 46.070312 24.714844 L 47.523438 24.714844 L 47.523438 21.808594 L 46.070312 21.808594 L 46.070312 24.714844 " fill-opacity="1" fill-rule="nonzero"/><g clip-path="url(#472a89877d)"><path fill="#8c52ff" d="M 37.621094 41.257812 C 35.875 41.082031 34.53125 41.199219 33.847656 42.96875 C 33.316406 44.355469 34.097656 46.15625 34.40625 47.511719 C 34.5625 48.1875 34.65625 49.042969 35.28125 49.457031 C 36.121094 50.046875 36.714844 49.398438 37.402344 49.015625 C 38.210938 48.574219 38.960938 48.160156 39.554688 47.453125 C 40.082031 46.746094 40.800781 46.15625 41.238281 45.386719 C 41.519531 44.914062 41.738281 44.445312 41.488281 43.914062 C 41.238281 43.351562 40.582031 42.792969 40.082031 42.378906 C 39.648438 41.996094 39.273438 41.761719 38.710938 41.613281 C 38.304688 41.523438 37.777344 41.171875 37.402344 41.230469 " fill-opacity="1" fill-rule="nonzero"/><path fill="#ffffff" d="M 37.527344 41.242188 C 36.449219 41.136719 35.246094 41.09375 34.421875 41.871094 C 33.375 42.859375 33.476562 44.332031 33.773438 45.582031 C 33.949219 46.304688 34.191406 47.011719 34.347656 47.738281 C 34.46875 48.316406 34.578125 48.945312 35.050781 49.375 C 35.539062 49.820312 36.113281 49.753906 36.648438 49.445312 C 36.960938 49.265625 37.257812 49.0625 37.574219 48.886719 C 37.9375 48.6875 38.292969 48.476562 38.628906 48.238281 C 38.96875 47.996094 39.285156 47.710938 39.535156 47.382812 C 39.851562 46.964844 40.234375 46.589844 40.578125 46.195312 C 41.089844 45.605469 41.789062 44.699219 41.410156 43.90625 C 41.046875 43.152344 40.261719 42.515625 39.574219 42.027344 C 39.238281 41.789062 38.867188 41.675781 38.476562 41.554688 C 38.09375 41.441406 37.726562 41.175781 37.308594 41.214844 C 37.285156 41.214844 37.285156 41.25 37.308594 41.246094 C 37.664062 41.214844 37.992188 41.410156 38.308594 41.53125 C 38.6875 41.675781 39.066406 41.757812 39.414062 41.964844 C 39.75 42.164062 40.042969 42.441406 40.335938 42.695312 C 40.679688 42.992188 41.007812 43.316406 41.253906 43.691406 C 41.839844 44.585938 41.089844 45.554688 40.488281 46.246094 C 40.230469 46.542969 39.953125 46.832031 39.695312 47.132812 C 39.417969 47.453125 39.164062 47.769531 38.832031 48.042969 C 38.210938 48.550781 37.457031 48.890625 36.777344 49.324219 C 36.433594 49.546875 36.066406 49.734375 35.636719 49.652344 C 35.152344 49.554688 34.824219 49.132812 34.648438 48.726562 C 34.382812 48.105469 34.316406 47.398438 34.132812 46.75 C 33.910156 45.96875 33.671875 45.183594 33.601562 44.371094 C 33.515625 43.335938 33.890625 42.171875 34.851562 41.585938 C 35.625 41.109375 36.652344 41.1875 37.527344 41.277344 C 37.546875 41.277344 37.546875 41.246094 37.527344 41.242188 Z M 37.527344 41.242188 " fill-opacity="1" fill-rule="nonzero"/></g><path fill="#8c52ff" d="M 38.242188 41.71875 C 37.777344 41.832031 37.121094 40.855469 36.902344 40.558594 C 36.558594 40.027344 36.683594 39.53125 36.464844 38.96875 C 37.527344 39.621094 38.179688 40.566406 38.273438 41.71875 Z M 38.242188 41.71875 " fill-opacity="1" fill-rule="nonzero"/><path fill="#8c52ff" d="M 38.148438 41.703125 C 38.617188 40.816406 39.554688 40.136719 40.582031 39.960938 C 40.613281 40.523438 40.238281 41.082031 39.773438 41.4375 C 39.460938 41.703125 38.460938 42.203125 38.148438 41.703125 Z M 38.148438 41.703125 " fill-opacity="1" fill-rule="nonzero"/><path fill="#8c52ff" d="M 38.085938 41.761719 C 37.089844 41.40625 36.402344 42.054688 35.5 42.378906 C 36.558594 42.882812 37.527344 42.820312 38.085938 41.761719 " fill-opacity="1" fill-rule="nonzero"/><path fill="#8c52ff" d="M 38.242188 41.835938 C 37.746094 42.777344 38.492188 43.132812 39.085938 43.867188 C 39.304688 43.484375 39.742188 42.808594 39.523438 42.335938 C 39.335938 41.863281 38.679688 41.835938 38.242188 41.835938 " fill-opacity="1" fill-rule="nonzero"/><path fill="#8c52ff" d="M 37.640625 41.578125 C 36.714844 40.335938 35.859375 40.488281 34.46875 40.5625 C 35.074219 41.390625 36.820312 41.691406 37.640625 41.578125 " fill-opacity="1" fill-rule="nonzero"/><g clip-path="url(#3b989dc053)"><path fill="#8c52ff" d="M 38.898438 41.757812 C 39.578125 42.8125 40.335938 42.78125 41.550781 42.863281 C 41.109375 42.15625 39.621094 41.75 38.898438 41.757812 " fill-opacity="1" fill-rule="nonzero"/></g><g clip-path="url(#ad9083ea17)"><path fill="#8c52ff" d="M 38.210938 41.789062 C 38.082031 40.714844 38.804688 39.195312 38.742188 38.015625 C 38.835938 38.222656 38.898438 38.074219 39.054688 38.164062 C 39.085938 37.898438 38.75 37.851562 38.742188 38.015625 " fill-opacity="1" fill-rule="nonzero"/></g><path fill="#8c52ff" d="M 38.992188 38.191406 C 38.929688 38.753906 38.867188 41.761719 38.210938 41.789062 " fill-opacity="1" fill-rule="nonzero"/><path fill="#ffffff" d="M 34.453125 42.789062 C 34.425781 42.898438 34.390625 43.003906 34.390625 43.117188 C 34.390625 43.132812 34.414062 43.140625 34.421875 43.125 C 34.476562 43.046875 34.488281 42.976562 34.488281 42.882812 C 34.488281 42.871094 34.480469 42.863281 34.46875 42.863281 C 34.421875 42.867188 34.382812 42.890625 34.363281 42.933594 C 34.351562 42.949219 34.382812 42.96875 34.390625 42.949219 C 34.40625 42.917969 34.433594 42.902344 34.46875 42.898438 C 34.464844 42.890625 34.457031 42.886719 34.453125 42.882812 C 34.453125 42.96875 34.445312 43.035156 34.390625 43.109375 C 34.402344 43.113281 34.414062 43.113281 34.425781 43.117188 C 34.425781 43.007812 34.457031 42.902344 34.488281 42.796875 C 34.492188 42.777344 34.457031 42.765625 34.453125 42.789062 Z M 34.453125 42.789062 " fill-opacity="1" fill-rule="nonzero"/><path fill="#ffffff" d="M 34.203125 43.972656 C 34.199219 44.03125 34.175781 44.101562 34.171875 44.160156 C 34.171875 44.171875 34.179688 44.191406 34.1875 44.191406 C 34.210938 44.191406 34.230469 44.191406 34.25 44.191406 C 34.261719 44.191406 34.273438 44.15625 34.273438 44.148438 C 34.273438 44.089844 34.273438 44.03125 34.273438 43.972656 C 34.273438 43.957031 34.25 43.949219 34.242188 43.960938 C 34.207031 44 34.203125 44.035156 34.242188 44.074219 C 34.253906 44.089844 34.28125 44.066406 34.265625 44.050781 C 34.242188 44.027344 34.234375 44.003906 34.253906 43.984375 C 34.242188 43.980469 34.273438 43.976562 34.210938 43.972656 C 34.210938 44.03125 34.210938 44.089844 34.210938 44.148438 C 34.210938 44.144531 34.246094 44.132812 34.25 44.132812 C 34.230469 44.132812 34.210938 44.132812 34.1875 44.132812 C 34.195312 44.132812 34.199219 44.144531 34.207031 44.148438 C 34.210938 44.089844 34.234375 44.03125 34.238281 43.972656 C 34.238281 43.949219 34.203125 43.949219 34.203125 43.972656 Z M 34.203125 43.972656 " fill-opacity="1" fill-rule="nonzero"/><path fill="#ffffff" d="M 34.210938 45.167969 C 34.210938 45.167969 34.210938 45.300781 34.210938 45.359375 C 34.210938 45.371094 34.226562 45.378906 34.238281 45.371094 C 34.269531 45.339844 34.300781 45.308594 34.332031 45.277344 C 34.34375 45.269531 34.351562 45.257812 34.351562 45.242188 C 34.351562 45.230469 34.339844 45.21875 34.335938 45.210938 C 34.316406 45.183594 34.304688 45.148438 34.300781 45.117188 C 34.296875 45.105469 34.28125 45.105469 34.269531 45.109375 C 34.234375 45.140625 34.195312 45.175781 34.1875 45.222656 C 34.183594 45.269531 34.203125 45.3125 34.203125 45.359375 C 34.203125 45.378906 34.238281 45.378906 34.238281 45.359375 C 34.238281 45.324219 34.226562 45.292969 34.222656 45.257812 C 34.214844 45.203125 34.25 45.167969 34.296875 45.132812 C 34.285156 45.132812 34.277344 45.128906 34.265625 45.125 C 34.273438 45.171875 34.289062 45.207031 34.316406 45.242188 C 34.320312 45.25 34.207031 45.335938 34.195312 45.347656 C 34.207031 45.351562 34.210938 45.355469 34.210938 45.359375 C 34.210938 45.300781 34.210938 45.226562 34.210938 45.167969 Z M 34.210938 45.167969 " fill-opacity="1" fill-rule="nonzero"/><path fill="#ffffff" d="M 34.578125 46.503906 C 34.558594 46.550781 34.535156 46.597656 34.53125 46.648438 C 34.523438 46.71875 34.542969 46.78125 34.578125 46.839844 C 34.585938 46.851562 34.605469 46.851562 34.609375 46.839844 C 34.636719 46.789062 34.664062 46.734375 34.644531 46.675781 C 34.628906 46.628906 34.578125 46.597656 34.546875 46.558594 C 34.535156 46.542969 34.503906 46.558594 34.515625 46.574219 C 34.539062 46.601562 34.5625 46.632812 34.585938 46.65625 C 34.640625 46.707031 34.609375 46.777344 34.578125 46.835938 C 34.589844 46.835938 34.601562 46.835938 34.609375 46.835938 C 34.542969 46.722656 34.570312 46.632812 34.613281 46.519531 C 34.621094 46.5 34.585938 46.484375 34.578125 46.503906 Z M 34.578125 46.503906 " fill-opacity="1" fill-rule="nonzero"/><path fill="#ffffff" d="M 35.046875 45.234375 C 35.019531 45.347656 35.011719 45.460938 35.046875 45.570312 C 35.050781 45.582031 35.070312 45.585938 35.078125 45.574219 C 35.113281 45.523438 35.171875 45.445312 35.140625 45.382812 C 35.121094 45.339844 35.070312 45.328125 35.046875 45.289062 C 35.035156 45.273438 35.003906 45.289062 35.015625 45.308594 C 35.035156 45.335938 35.0625 45.351562 35.089844 45.371094 C 35.148438 45.421875 35.082031 45.507812 35.046875 45.554688 C 35.058594 45.558594 35.070312 45.558594 35.078125 45.558594 C 35.046875 45.457031 35.054688 45.347656 35.078125 45.246094 C 35.085938 45.222656 35.050781 45.214844 35.046875 45.234375 Z M 35.046875 45.234375 " fill-opacity="1" fill-rule="nonzero"/><path fill="#ffffff" d="M 35.296875 44.117188 C 35.261719 44.210938 35.234375 44.316406 35.265625 44.417969 C 35.269531 44.433594 35.289062 44.4375 35.296875 44.421875 C 35.335938 44.347656 35.363281 44.265625 35.390625 44.183594 C 35.394531 44.175781 35.390625 44.167969 35.382812 44.164062 C 35.363281 44.15625 35.339844 44.144531 35.320312 44.136719 C 35.3125 44.132812 35.304688 44.132812 35.300781 44.136719 C 35.269531 44.164062 35.230469 44.1875 35.1875 44.191406 C 35.164062 44.195312 35.164062 44.226562 35.1875 44.226562 C 35.238281 44.21875 35.285156 44.191406 35.324219 44.160156 C 35.316406 44.160156 35.308594 44.164062 35.304688 44.164062 C 35.324219 44.171875 35.34375 44.183594 35.367188 44.191406 C 35.363281 44.1875 35.359375 44.179688 35.359375 44.175781 C 35.328125 44.253906 35.304688 44.332031 35.265625 44.40625 C 35.277344 44.40625 35.285156 44.410156 35.296875 44.410156 C 35.269531 44.316406 35.296875 44.214844 35.328125 44.125 C 35.335938 44.105469 35.300781 44.09375 35.296875 44.117188 Z M 35.296875 44.117188 " fill-opacity="1" fill-rule="nonzero"/><path fill="#ffffff" d="M 36.230469 43.9375 C 36.199219 44.042969 36.144531 44.128906 36.167969 44.242188 C 36.171875 44.257812 36.191406 44.257812 36.199219 44.246094 C 36.234375 44.203125 36.296875 44.121094 36.257812 44.066406 C 36.230469 44.027344 36.171875 44.035156 36.132812 44.015625 C 36.113281 44.007812 36.09375 44.035156 36.113281 44.046875 C 36.144531 44.058594 36.175781 44.0625 36.203125 44.070312 C 36.28125 44.09375 36.195312 44.195312 36.171875 44.230469 C 36.179688 44.230469 36.191406 44.230469 36.203125 44.234375 C 36.179688 44.128906 36.238281 44.042969 36.265625 43.945312 C 36.269531 43.925781 36.238281 43.917969 36.230469 43.9375 Z M 36.230469 43.9375 " fill-opacity="1" fill-rule="nonzero"/><path fill="#ffffff" d="M 35.675781 42.988281 C 35.582031 43.078125 35.5 43.261719 35.613281 43.363281 C 35.617188 43.371094 35.628906 43.371094 35.636719 43.363281 C 35.671875 43.335938 35.742188 43.289062 35.714844 43.234375 C 35.695312 43.1875 35.609375 43.179688 35.578125 43.136719 C 35.5625 43.121094 35.53125 43.136719 35.546875 43.15625 C 35.570312 43.183594 35.601562 43.203125 35.632812 43.21875 C 35.652344 43.226562 35.675781 43.226562 35.6875 43.242188 C 35.703125 43.265625 35.625 43.328125 35.613281 43.328125 C 35.621094 43.328125 35.628906 43.328125 35.636719 43.328125 C 35.539062 43.269531 35.621094 43.082031 35.699219 43.003906 C 35.714844 42.988281 35.691406 42.972656 35.675781 42.988281 Z M 35.675781 42.988281 " fill-opacity="1" fill-rule="nonzero"/><path fill="#ffffff" d="M 37.542969 44.023438 C 37.511719 44.066406 37.464844 44.101562 37.4375 44.148438 C 37.40625 44.195312 37.40625 44.25 37.414062 44.300781 C 37.417969 44.316406 37.441406 44.316406 37.449219 44.304688 C 37.472656 44.253906 37.527344 44.164062 37.480469 44.113281 C 37.449219 44.074219 37.386719 44.082031 37.351562 44.050781 C 37.335938 44.035156 37.308594 44.058594 37.328125 44.074219 C 37.355469 44.097656 37.390625 44.101562 37.425781 44.113281 C 37.5 44.140625 37.441406 44.242188 37.417969 44.289062 C 37.429688 44.289062 37.4375 44.289062 37.449219 44.292969 C 37.4375 44.230469 37.449219 44.179688 37.488281 44.132812 C 37.515625 44.101562 37.546875 44.074219 37.574219 44.039062 C 37.585938 44.023438 37.554688 44.003906 37.542969 44.023438 Z M 37.542969 44.023438 " fill-opacity="1" fill-rule="nonzero"/><path fill="#ffffff" d="M 37.664062 45.03125 C 37.648438 45.082031 37.605469 45.128906 37.601562 45.179688 C 37.597656 45.242188 37.699219 45.25 37.738281 45.257812 C 37.75 45.257812 37.757812 45.253906 37.761719 45.246094 C 37.785156 45.144531 37.765625 45.066406 37.730469 44.96875 C 37.726562 44.957031 37.707031 44.953125 37.699219 44.964844 C 37.65625 45.035156 37.554688 45.042969 37.511719 45.113281 C 37.5 45.132812 37.53125 45.148438 37.542969 45.128906 C 37.582031 45.0625 37.683594 45.050781 37.730469 44.984375 C 37.71875 44.980469 37.707031 44.980469 37.695312 44.980469 C 37.726562 45.066406 37.75 45.140625 37.726562 45.234375 C 37.734375 45.230469 37.742188 45.226562 37.75 45.222656 C 37.703125 45.21875 37.617188 45.214844 37.644531 45.152344 C 37.664062 45.113281 37.6875 45.078125 37.699219 45.039062 C 37.707031 45.015625 37.671875 45.007812 37.664062 45.03125 Z M 37.664062 45.03125 " fill-opacity="1" fill-rule="nonzero"/><path fill="#ffffff" d="M 36.394531 45.609375 C 36.246094 45.695312 36.136719 45.84375 36.199219 46.011719 C 36.203125 46.023438 36.222656 46.027344 36.230469 46.015625 C 36.285156 45.933594 36.269531 45.863281 36.265625 45.769531 C 36.265625 45.753906 36.246094 45.75 36.234375 45.757812 C 36.171875 45.808594 36.101562 45.785156 36.03125 45.785156 C 36.007812 45.78125 36.007812 45.816406 36.03125 45.816406 C 36.113281 45.820312 36.191406 45.839844 36.261719 45.78125 C 36.25 45.777344 36.238281 45.773438 36.230469 45.769531 C 36.234375 45.855469 36.25 45.921875 36.203125 46 C 36.210938 46 36.222656 46 36.234375 46.003906 C 36.175781 45.847656 36.277344 45.71875 36.414062 45.636719 C 36.429688 45.625 36.414062 45.597656 36.394531 45.609375 Z M 36.394531 45.609375 " fill-opacity="1" fill-rule="nonzero"/><path fill="#ffffff" d="M 36.980469 46.503906 C 36.949219 46.59375 36.949219 46.683594 36.949219 46.773438 C 36.949219 46.789062 36.964844 46.796875 36.976562 46.785156 C 37.039062 46.726562 37.050781 46.648438 37.074219 46.570312 C 37.078125 46.5625 37.070312 46.550781 37.058594 46.550781 C 36.984375 46.550781 36.914062 46.578125 36.839844 46.582031 C 36.816406 46.582031 36.816406 46.613281 36.839844 46.613281 C 36.914062 46.609375 36.984375 46.585938 37.058594 46.582031 C 37.054688 46.578125 37.046875 46.570312 37.042969 46.5625 C 37.019531 46.632812 37.007812 46.707031 36.953125 46.761719 C 36.960938 46.765625 36.972656 46.769531 36.984375 46.773438 C 36.984375 46.683594 36.984375 46.597656 37.011719 46.511719 C 37.019531 46.492188 36.984375 46.484375 36.980469 46.503906 Z M 36.980469 46.503906 " fill-opacity="1" fill-rule="nonzero"/><path fill="#ffffff" d="M 35.832031 47.261719 C 35.769531 47.304688 35.6875 47.363281 35.679688 47.449219 C 35.675781 47.539062 35.734375 47.609375 35.796875 47.671875 C 35.808594 47.679688 35.824219 47.675781 35.828125 47.664062 C 35.855469 47.585938 35.863281 47.503906 35.890625 47.425781 C 35.894531 47.417969 35.886719 47.40625 35.878906 47.40625 C 35.832031 47.398438 35.832031 47.363281 35.78125 47.386719 C 35.726562 47.414062 35.683594 47.457031 35.644531 47.5 C 35.625 47.515625 35.652344 47.539062 35.667969 47.523438 C 35.703125 47.488281 35.738281 47.453125 35.78125 47.425781 C 35.816406 47.40625 35.835938 47.433594 35.867188 47.4375 C 35.863281 47.429688 35.859375 47.425781 35.855469 47.417969 C 35.832031 47.496094 35.820312 47.578125 35.792969 47.652344 C 35.804688 47.652344 35.8125 47.648438 35.824219 47.648438 C 35.769531 47.59375 35.71875 47.539062 35.714844 47.464844 C 35.710938 47.386719 35.792969 47.328125 35.851562 47.289062 C 35.871094 47.277344 35.851562 47.25 35.832031 47.261719 Z M 35.832031 47.261719 " fill-opacity="1" fill-rule="nonzero"/><path fill="#ffffff" d="M 36.667969 48.179688 C 36.652344 48.210938 36.625 48.230469 36.601562 48.253906 C 36.570312 48.292969 36.554688 48.34375 36.542969 48.390625 C 36.539062 48.40625 36.558594 48.417969 36.570312 48.40625 C 36.609375 48.378906 36.671875 48.382812 36.714844 48.382812 C 36.730469 48.382812 36.738281 48.363281 36.726562 48.355469 C 36.699219 48.332031 36.671875 48.320312 36.636719 48.3125 C 36.609375 48.308594 36.5625 48.3125 36.539062 48.296875 C 36.523438 48.28125 36.5 48.304688 36.515625 48.320312 C 36.535156 48.332031 36.554688 48.335938 36.578125 48.339844 C 36.625 48.34375 36.667969 48.347656 36.703125 48.378906 C 36.707031 48.367188 36.710938 48.359375 36.714844 48.347656 C 36.660156 48.347656 36.589844 48.347656 36.546875 48.382812 C 36.558594 48.390625 36.566406 48.394531 36.578125 48.398438 C 36.585938 48.347656 36.605469 48.300781 36.640625 48.261719 C 36.660156 48.242188 36.683594 48.222656 36.699219 48.199219 C 36.710938 48.179688 36.679688 48.160156 36.667969 48.179688 Z M 36.667969 48.179688 " fill-opacity="1" fill-rule="nonzero"/><path fill="#ffffff" d="M 38.605469 46.527344 C 38.558594 46.574219 38.511719 46.621094 38.480469 46.683594 C 38.46875 46.707031 38.449219 46.75 38.46875 46.773438 C 38.519531 46.851562 38.640625 46.691406 38.664062 46.664062 C 38.671875 46.65625 38.664062 46.640625 38.652344 46.640625 C 38.566406 46.617188 38.488281 46.636719 38.398438 46.640625 C 38.375 46.640625 38.375 46.671875 38.398438 46.671875 C 38.484375 46.671875 38.5625 46.648438 38.644531 46.671875 C 38.640625 46.664062 38.636719 46.65625 38.632812 46.648438 C 38.605469 46.683594 38.574219 46.71875 38.535156 46.746094 C 38.523438 46.753906 38.496094 46.773438 38.496094 46.75 C 38.496094 46.675781 38.582031 46.59375 38.628906 46.550781 C 38.644531 46.535156 38.621094 46.511719 38.605469 46.527344 Z M 38.605469 46.527344 " fill-opacity="1" fill-rule="nonzero"/><path fill="#ffffff" d="M 39.476562 45.691406 C 39.476562 45.6875 39.480469 45.683594 39.480469 45.679688 C 39.46875 45.675781 39.460938 45.671875 39.449219 45.667969 C 39.4375 45.691406 39.421875 45.722656 39.410156 45.753906 C 39.398438 45.78125 39.371094 45.832031 39.378906 45.863281 C 39.390625 45.902344 39.433594 45.902344 39.457031 45.882812 C 39.46875 45.875 39.476562 45.867188 39.484375 45.855469 C 39.492188 45.847656 39.496094 45.839844 39.503906 45.832031 C 39.507812 45.828125 39.511719 45.820312 39.515625 45.816406 C 39.523438 45.8125 39.519531 45.808594 39.503906 45.804688 C 39.515625 45.800781 39.523438 45.792969 39.535156 45.789062 C 39.5 45.746094 39.460938 45.714844 39.410156 45.695312 C 39.355469 45.679688 39.300781 45.679688 39.246094 45.667969 C 39.222656 45.660156 39.214844 45.695312 39.238281 45.699219 C 39.285156 45.707031 39.332031 45.710938 39.378906 45.722656 C 39.433594 45.734375 39.476562 45.769531 39.507812 45.8125 C 39.523438 45.828125 39.542969 45.808594 39.539062 45.796875 C 39.527344 45.738281 39.453125 45.835938 39.445312 45.851562 C 39.441406 45.851562 39.414062 45.871094 39.414062 45.851562 C 39.414062 45.84375 39.417969 45.832031 39.421875 45.824219 C 39.429688 45.800781 39.4375 45.78125 39.445312 45.761719 C 39.457031 45.730469 39.472656 45.703125 39.484375 45.675781 C 39.492188 45.65625 39.460938 45.648438 39.449219 45.664062 C 39.449219 45.667969 39.445312 45.671875 39.445312 45.675781 C 39.433594 45.691406 39.464844 45.710938 39.476562 45.691406 Z M 39.476562 45.691406 " fill-opacity="1" fill-rule="nonzero"/><path fill="#ffffff" d="M 40.230469 44.84375 C 40.179688 44.863281 40.136719 44.871094 40.082031 44.871094 C 40.074219 44.871094 40.066406 44.878906 40.066406 44.886719 C 40.066406 44.988281 40.070312 45.074219 40.128906 45.160156 C 40.136719 45.171875 40.152344 45.171875 40.160156 45.160156 C 40.214844 45.085938 40.257812 45.007812 40.289062 44.921875 C 40.289062 44.910156 40.285156 44.902344 40.273438 44.898438 C 40.183594 44.875 40.105469 44.902344 40.015625 44.929688 C 39.996094 44.9375 40.003906 44.96875 40.027344 44.960938 C 40.105469 44.933594 40.179688 44.910156 40.265625 44.933594 C 40.261719 44.925781 40.257812 44.929688 40.253906 44.921875 C 40.222656 45.007812 40.183594 45.054688 40.128906 45.167969 C 40.140625 45.167969 40.152344 45.167969 40.160156 45.167969 C 40.105469 45.054688 40.101562 44.992188 40.101562 44.898438 C 40.09375 44.902344 40.089844 44.902344 40.082031 44.910156 C 40.144531 44.910156 40.195312 44.898438 40.25 44.875 C 40.269531 44.863281 40.25 44.832031 40.230469 44.84375 Z M 40.230469 44.84375 " fill-opacity="1" fill-rule="nonzero"/><path fill="#ffffff" d="M 38.882812 44.523438 C 38.800781 44.65625 38.722656 44.800781 38.890625 44.902344 C 38.898438 44.90625 38.914062 44.902344 38.914062 44.890625 C 38.929688 44.839844 38.976562 44.71875 38.925781 44.671875 C 38.871094 44.625 38.785156 44.671875 38.734375 44.695312 C 38.714844 44.703125 38.730469 44.734375 38.75 44.722656 C 38.785156 44.707031 38.886719 44.65625 38.90625 44.710938 C 38.925781 44.761719 38.894531 44.832031 38.882812 44.882812 C 38.890625 44.878906 38.898438 44.875 38.90625 44.871094 C 38.761719 44.78125 38.84375 44.652344 38.914062 44.539062 C 38.925781 44.523438 38.894531 44.503906 38.882812 44.523438 Z M 38.882812 44.523438 " fill-opacity="1" fill-rule="nonzero"/><path fill="#ffffff" d="M 40.457031 43.71875 C 40.417969 43.722656 40.375 43.742188 40.347656 43.699219 C 40.339844 43.683594 40.316406 43.691406 40.316406 43.707031 C 40.316406 43.757812 40.300781 43.816406 40.316406 43.863281 C 40.328125 43.90625 40.382812 43.933594 40.417969 43.957031 C 40.429688 43.964844 40.441406 43.953125 40.445312 43.941406 C 40.453125 43.882812 40.453125 43.804688 40.394531 43.765625 C 40.335938 43.722656 40.25 43.714844 40.183594 43.691406 C 40.160156 43.683594 40.152344 43.714844 40.171875 43.722656 C 40.230469 43.742188 40.289062 43.753906 40.347656 43.777344 C 40.421875 43.804688 40.417969 43.878906 40.410156 43.941406 C 40.417969 43.9375 40.425781 43.933594 40.433594 43.929688 C 40.40625 43.910156 40.359375 43.886719 40.347656 43.851562 C 40.335938 43.808594 40.351562 43.75 40.351562 43.707031 C 40.339844 43.710938 40.328125 43.710938 40.316406 43.714844 C 40.351562 43.773438 40.394531 43.753906 40.457031 43.753906 C 40.480469 43.753906 40.480469 43.71875 40.457031 43.71875 Z M 40.457031 43.71875 " fill-opacity="1" fill-rule="nonzero"/><path fill="#ffffff" d="M 40.910156 43.96875 C 40.878906 44.066406 40.875 44.167969 40.875 44.265625 C 40.875 44.277344 40.886719 44.285156 40.894531 44.285156 C 40.929688 44.285156 40.933594 44.285156 40.953125 44.261719 C 40.972656 44.238281 40.996094 44.203125 40.988281 44.171875 C 40.980469 44.113281 40.90625 44.125 40.878906 44.082031 C 40.867188 44.0625 40.835938 44.082031 40.847656 44.097656 C 40.867188 44.125 40.898438 44.136719 40.925781 44.152344 C 40.949219 44.160156 40.960938 44.171875 40.953125 44.195312 C 40.945312 44.214844 40.933594 44.230469 40.921875 44.242188 C 40.914062 44.253906 40.910156 44.25 40.894531 44.25 C 40.898438 44.257812 40.90625 44.261719 40.910156 44.265625 C 40.910156 44.167969 40.910156 44.070312 40.941406 43.976562 C 40.949219 43.957031 40.914062 43.949219 40.910156 43.96875 Z M 40.910156 43.96875 " fill-opacity="1" fill-rule="nonzero"/><path fill="#ffffff" d="M 37.769531 42.71875 C 37.707031 42.742188 37.628906 42.769531 37.589844 42.824219 C 37.546875 42.882812 37.570312 42.949219 37.605469 43.007812 C 37.609375 43.015625 37.625 43.019531 37.632812 43.011719 C 37.667969 42.96875 37.714844 42.90625 37.6875 42.851562 C 37.652344 42.785156 37.566406 42.753906 37.503906 42.71875 C 37.484375 42.707031 37.464844 42.738281 37.484375 42.746094 C 37.535156 42.773438 37.585938 42.800781 37.628906 42.835938 C 37.6875 42.882812 37.644531 42.941406 37.605469 42.988281 C 37.617188 42.988281 37.625 42.988281 37.636719 42.992188 C 37.605469 42.941406 37.582031 42.886719 37.625 42.835938 C 37.660156 42.792969 37.726562 42.769531 37.78125 42.75 C 37.800781 42.742188 37.792969 42.710938 37.769531 42.71875 Z M 37.769531 42.71875 " fill-opacity="1" fill-rule="nonzero"/><path fill="#ffffff" d="M 35.402344 41.890625 C 35.25 41.921875 35.140625 41.992188 35.109375 42.140625 C 35.105469 42.148438 35.113281 42.160156 35.125 42.160156 C 35.15625 42.160156 35.203125 42.167969 35.234375 42.152344 C 35.265625 42.140625 35.289062 42.113281 35.320312 42.097656 C 35.335938 42.089844 35.328125 42.066406 35.3125 42.066406 C 35.269531 42.070312 35.203125 42.097656 35.164062 42.070312 C 35.148438 42.058594 35.128906 42.085938 35.148438 42.097656 C 35.195312 42.132812 35.261719 42.105469 35.3125 42.101562 C 35.308594 42.089844 35.304688 42.082031 35.304688 42.070312 C 35.273438 42.085938 35.25 42.097656 35.226562 42.117188 C 35.203125 42.136719 35.148438 42.128906 35.125 42.128906 C 35.128906 42.132812 35.136719 42.140625 35.140625 42.148438 C 35.171875 42.011719 35.273438 41.953125 35.410156 41.925781 C 35.433594 41.917969 35.421875 41.886719 35.402344 41.890625 Z M 35.402344 41.890625 " fill-opacity="1" fill-rule="nonzero"/><path fill="#ffffff" d="M 35.707031 48.5625 C 35.671875 48.589844 35.617188 48.605469 35.589844 48.644531 C 35.554688 48.691406 35.582031 48.742188 35.609375 48.789062 C 35.613281 48.796875 35.628906 48.800781 35.636719 48.789062 C 35.683594 48.734375 35.761719 48.652344 35.734375 48.570312 C 35.707031 48.5 35.59375 48.496094 35.53125 48.496094 C 35.507812 48.496094 35.507812 48.53125 35.53125 48.53125 C 35.582031 48.53125 35.679688 48.527344 35.703125 48.585938 C 35.722656 48.648438 35.644531 48.726562 35.613281 48.765625 C 35.621094 48.769531 35.628906 48.769531 35.640625 48.769531 C 35.609375 48.722656 35.589844 48.675781 35.644531 48.636719 C 35.675781 48.621094 35.703125 48.605469 35.730469 48.585938 C 35.746094 48.570312 35.722656 48.546875 35.707031 48.5625 Z M 35.707031 48.5625 " fill-opacity="1" fill-rule="nonzero"/><path fill="#ffffff" d="M 38.328125 47.527344 C 38.207031 47.613281 38.105469 47.714844 38.164062 47.867188 C 38.167969 47.878906 38.175781 47.882812 38.1875 47.878906 C 38.300781 47.851562 38.394531 47.757812 38.359375 47.640625 C 38.316406 47.5 38.148438 47.53125 38.046875 47.585938 C 38.027344 47.59375 38.046875 47.625 38.066406 47.613281 C 38.148438 47.566406 38.28125 47.535156 38.324219 47.648438 C 38.359375 47.746094 38.269531 47.828125 38.175781 47.847656 C 38.183594 47.851562 38.191406 47.855469 38.199219 47.859375 C 38.144531 47.722656 38.234375 47.632812 38.347656 47.554688 C 38.363281 47.542969 38.347656 47.511719 38.328125 47.527344 Z M 38.328125 47.527344 " fill-opacity="1" fill-rule="nonzero"/><path fill="#ffffff" d="M 34.703125 47.863281 C 34.703125 47.914062 34.695312 47.960938 34.714844 48.003906 C 34.738281 48.066406 34.808594 48.097656 34.871094 48.117188 C 34.878906 48.117188 34.886719 48.117188 34.890625 48.109375 C 34.90625 48.074219 34.921875 48.035156 34.90625 47.996094 C 34.894531 47.972656 34.863281 47.953125 34.863281 47.921875 C 34.859375 47.902344 34.824219 47.902344 34.828125 47.921875 C 34.828125 47.945312 34.839844 47.964844 34.855469 47.980469 C 34.886719 48.019531 34.882812 48.050781 34.859375 48.09375 C 34.867188 48.089844 34.875 48.085938 34.878906 48.085938 C 34.824219 48.066406 34.761719 48.039062 34.742188 47.980469 C 34.730469 47.945312 34.738281 47.902344 34.738281 47.863281 C 34.738281 47.84375 34.703125 47.84375 34.703125 47.863281 Z M 34.703125 47.863281 " fill-opacity="1" fill-rule="nonzero"/><path fill="#ffffff" d="M 39.636719 46.722656 C 39.636719 46.722656 39.636719 46.835938 39.617188 46.878906 C 39.609375 46.894531 39.628906 46.917969 39.644531 46.90625 C 39.691406 46.859375 39.71875 46.804688 39.742188 46.746094 C 39.746094 46.734375 39.734375 46.722656 39.71875 46.726562 C 39.6875 46.734375 39.660156 46.75 39.636719 46.769531 C 39.625 46.773438 39.617188 46.78125 39.609375 46.789062 C 39.609375 46.792969 39.605469 46.796875 39.601562 46.796875 C 39.589844 46.8125 39.625 46.773438 39.625 46.808594 C 39.625 46.789062 39.589844 46.789062 39.589844 46.808594 C 39.589844 46.832031 39.613281 46.835938 39.628906 46.820312 C 39.65625 46.792969 39.6875 46.769531 39.730469 46.761719 C 39.722656 46.753906 39.714844 46.746094 39.707031 46.738281 C 39.6875 46.796875 39.664062 46.84375 39.617188 46.886719 C 39.628906 46.894531 39.636719 46.890625 39.644531 46.894531 C 39.671875 46.84375 39.671875 46.777344 39.671875 46.722656 C 39.671875 46.722656 39.636719 46.722656 39.636719 46.722656 Z M 39.636719 46.722656 " fill-opacity="1" fill-rule="nonzero"/><path fill="#ffffff" d="M 40.503906 45.695312 C 40.457031 45.765625 40.4375 45.84375 40.410156 45.921875 C 40.40625 45.925781 40.410156 45.933594 40.414062 45.9375 C 40.429688 45.953125 40.445312 45.96875 40.460938 45.980469 C 40.464844 45.988281 40.476562 45.988281 40.480469 45.984375 C 40.519531 45.960938 40.578125 45.925781 40.570312 45.878906 C 40.566406 45.832031 40.515625 45.792969 40.484375 45.757812 C 40.472656 45.742188 40.449219 45.765625 40.460938 45.78125 C 40.484375 45.808594 40.507812 45.832031 40.527344 45.859375 C 40.558594 45.902344 40.492188 45.9375 40.464844 45.957031 C 40.472656 45.957031 40.480469 45.957031 40.484375 45.957031 C 40.476562 45.949219 40.46875 45.941406 40.457031 45.933594 C 40.4375 45.910156 40.445312 45.925781 40.453125 45.902344 C 40.476562 45.835938 40.496094 45.769531 40.535156 45.714844 C 40.546875 45.695312 40.515625 45.679688 40.503906 45.695312 Z M 40.503906 45.695312 " fill-opacity="1" fill-rule="nonzero"/><path fill="#ffffff" d="M 37.832031 45.886719 C 37.824219 45.886719 37.816406 45.886719 37.808594 45.886719 C 37.785156 45.886719 37.785156 45.921875 37.808594 45.921875 C 37.816406 45.921875 37.824219 45.921875 37.832031 45.921875 C 37.851562 45.921875 37.851562 45.886719 37.832031 45.886719 Z M 37.832031 45.886719 " fill-opacity="1" fill-rule="nonzero"/><path fill="#ffffff" d="M 37.832031 45.921875 C 37.851562 45.921875 37.851562 45.886719 37.832031 45.886719 C 37.808594 45.886719 37.808594 45.921875 37.832031 45.921875 Z M 37.832031 45.921875 " fill-opacity="1" fill-rule="nonzero"/><path fill="#ffffff" d="M 37.789062 45.898438 C 37.777344 45.941406 37.75 45.976562 37.746094 46.023438 C 37.742188 46.066406 37.785156 46.097656 37.820312 46.117188 C 37.828125 46.121094 37.839844 46.121094 37.84375 46.113281 C 37.867188 46.085938 37.921875 46.023438 37.890625 45.980469 C 37.863281 45.945312 37.800781 45.953125 37.738281 45.953125 C 37.738281 45.953125 37.738281 45.988281 37.738281 45.988281 C 37.800781 45.988281 37.824219 45.980469 37.855469 45.996094 C 37.886719 46.007812 37.820312 46.082031 37.8125 46.089844 C 37.820312 46.089844 37.828125 46.089844 37.835938 46.089844 C 37.796875 46.066406 37.773438 46.042969 37.785156 46 C 37.796875 45.96875 37.8125 45.941406 37.824219 45.90625 C 37.828125 45.886719 37.796875 45.878906 37.789062 45.898438 Z M 37.789062 45.898438 " fill-opacity="1" fill-rule="nonzero"/><path fill="#ffffff" d="M 36.152344 44.910156 C 36.148438 44.949219 36.148438 44.988281 36.160156 45.027344 C 36.164062 45.042969 36.171875 45.070312 36.191406 45.074219 C 36.210938 45.082031 36.21875 45.0625 36.214844 45.046875 C 36.207031 45.015625 36.179688 44.988281 36.160156 44.964844 C 36.144531 44.945312 36.121094 44.96875 36.132812 44.988281 C 36.148438 45.003906 36.164062 45.023438 36.175781 45.042969 C 36.179688 45.046875 36.179688 45.054688 36.183594 45.058594 C 36.179688 45.046875 36.214844 45.054688 36.203125 45.046875 C 36.203125 45.042969 36.203125 45.042969 36.203125 45.039062 C 36.179688 45.003906 36.183594 44.949219 36.1875 44.910156 C 36.191406 44.886719 36.15625 44.886719 36.152344 44.910156 Z M 36.152344 44.910156 " fill-opacity="1" fill-rule="nonzero"/><path fill="#ffffff" d="M 35.265625 46.484375 C 35.273438 46.511719 35.265625 46.535156 35.265625 46.5625 C 35.265625 46.585938 35.277344 46.605469 35.292969 46.625 C 35.296875 46.628906 35.3125 46.628906 35.316406 46.625 C 35.34375 46.59375 35.371094 46.554688 35.359375 46.511719 C 35.347656 46.480469 35.3125 46.460938 35.296875 46.429688 C 35.289062 46.410156 35.257812 46.417969 35.265625 46.4375 C 35.273438 46.464844 35.289062 46.484375 35.308594 46.503906 C 35.34375 46.539062 35.320312 46.546875 35.292969 46.605469 C 35.300781 46.605469 35.308594 46.605469 35.316406 46.605469 C 35.285156 46.546875 35.316406 46.519531 35.296875 46.476562 C 35.289062 46.457031 35.253906 46.464844 35.265625 46.484375 Z M 35.265625 46.484375 " fill-opacity="1" fill-rule="nonzero"/><path fill="#ffffff" d="M 38.210938 41.734375 C 37.765625 41.613281 37.394531 41.164062 37.105469 40.839844 C 36.933594 40.644531 36.785156 40.460938 36.683594 40.222656 C 36.558594 39.933594 36.550781 39.605469 36.496094 39.296875 C 36.492188 39.261719 36.441406 38.976562 36.441406 38.976562 C 36.597656 39.074219 36.742188 39.1875 36.878906 39.300781 C 37.132812 39.507812 37.347656 39.75 37.539062 40.007812 C 37.917969 40.523438 38.132812 41.128906 38.191406 41.75 C 38.191406 41.769531 38.226562 41.769531 38.226562 41.75 C 38.113281 40.566406 37.417969 39.550781 36.382812 38.902344 C 36.367188 38.894531 36.351562 38.90625 36.355469 38.917969 C 36.488281 39.285156 36.5 39.671875 36.589844 40.046875 C 36.65625 40.324219 36.808594 40.546875 36.992188 40.761719 C 37.296875 41.121094 37.710938 41.632812 38.203125 41.765625 C 38.226562 41.769531 38.234375 41.738281 38.210938 41.734375 Z M 38.210938 41.734375 " fill-opacity="1" fill-rule="nonzero"/><path fill="#ffffff" d="M 38 41.699219 C 37.023438 41.382812 36.265625 41.996094 35.402344 42.320312 C 35.386719 42.324219 35.382812 42.34375 35.398438 42.351562 C 35.855469 42.558594 36.34375 42.707031 36.855469 42.632812 C 37.394531 42.554688 37.769531 42.160156 38.007812 41.722656 C 38.019531 41.707031 37.988281 41.6875 37.980469 41.707031 C 37.757812 42.109375 37.453125 42.4375 36.984375 42.574219 C 36.574219 42.691406 36.125 42.59375 35.734375 42.457031 C 35.382812 42.332031 35.511719 42.316406 35.765625 42.207031 C 35.988281 42.105469 36.207031 41.992188 36.429688 41.890625 C 36.9375 41.65625 37.441406 41.554688 37.988281 41.730469 C 38.011719 41.738281 38.019531 41.707031 38 41.699219 Z M 38 41.699219 " fill-opacity="1" fill-rule="nonzero"/><path fill="#ffffff" d="M 37.566406 41.523438 C 37.214844 41.0625 36.792969 40.679688 36.203125 40.527344 C 35.617188 40.375 34.972656 40.464844 34.375 40.496094 C 34.363281 40.5 34.347656 40.515625 34.359375 40.527344 C 34.695312 40.964844 35.230469 41.207031 35.765625 41.367188 C 36.324219 41.535156 36.960938 41.628906 37.546875 41.554688 C 37.574219 41.550781 37.574219 41.511719 37.546875 41.515625 C 36.539062 41.640625 35.164062 41.351562 34.472656 40.601562 C 34.378906 40.5 34.742188 40.515625 34.792969 40.511719 C 34.949219 40.503906 35.101562 40.496094 35.253906 40.492188 C 35.527344 40.484375 35.800781 40.492188 36.066406 40.539062 C 36.703125 40.648438 37.164062 41.066406 37.53125 41.542969 C 37.546875 41.566406 37.582031 41.546875 37.566406 41.523438 Z M 37.566406 41.523438 " fill-opacity="1" fill-rule="nonzero"/><g clip-path="url(#ce7f940967)"><path fill="#ffffff" d="M 38.230469 41.789062 C 38.195312 40.988281 38.421875 40.199219 38.578125 39.417969 C 38.648438 39.058594 38.707031 38.703125 38.734375 38.339844 C 38.738281 38.28125 38.769531 38.035156 38.75 38.007812 C 38.835938 38.109375 38.9375 38.117188 39.054688 38.175781 C 39.066406 38.183594 39.082031 38.175781 39.082031 38.160156 C 39.089844 37.925781 38.953125 37.757812 38.714844 37.910156 C 38.695312 37.921875 38.710938 37.949219 38.730469 37.9375 C 38.832031 37.964844 38.9375 37.988281 39.039062 38.011719 C 39.054688 38.097656 39.042969 38.132812 39.007812 38.117188 C 38.871094 38.066406 38.816406 38.0625 38.738281 37.914062 C 38.730469 37.902344 38.703125 37.90625 38.703125 37.925781 C 38.75 39.234375 38.140625 40.480469 38.195312 41.789062 C 38.195312 41.8125 38.230469 41.8125 38.230469 41.789062 Z M 38.230469 41.789062 " fill-opacity="1" fill-rule="nonzero"/></g><path fill="#ffffff" d="M 40.484375 39.90625 C 39.96875 40.003906 39.472656 40.203125 39.0625 40.519531 C 38.960938 40.597656 38.863281 40.679688 38.769531 40.765625 C 38.675781 40.851562 38.683594 40.90625 38.652344 41.03125 C 38.597656 41.261719 38.5 41.726562 38.195312 41.769531 C 38.175781 41.769531 38.183594 41.804688 38.203125 41.800781 C 38.621094 41.753906 39.074219 41.695312 39.460938 41.527344 C 40.078125 41.265625 40.515625 40.550781 40.507812 39.921875 C 40.507812 39.902344 40.472656 39.902344 40.472656 39.921875 C 40.480469 40.554688 40.023438 41.277344 39.390625 41.519531 C 39.03125 41.660156 38.621094 41.714844 38.234375 41.765625 C 38.167969 41.773438 38.261719 41.796875 38.296875 41.777344 C 38.34375 41.75 38.382812 41.722656 38.417969 41.675781 C 38.5625 41.488281 38.625 41.261719 38.683594 41.042969 C 38.78125 40.683594 39.167969 40.464844 39.488281 40.285156 C 39.796875 40.113281 40.140625 40.003906 40.492188 39.9375 C 40.515625 39.933594 40.507812 39.902344 40.484375 39.90625 Z M 40.484375 39.90625 " fill-opacity="1" fill-rule="nonzero"/><path fill="#ffffff" d="M 38.117188 41.867188 C 38.121094 41.867188 38.121094 41.867188 38.121094 41.867188 C 38.125 41.867188 38.132812 41.863281 38.136719 41.855469 C 38.136719 41.851562 38.140625 41.847656 38.140625 41.84375 C 38.148438 41.824219 38.121094 41.816406 38.109375 41.832031 C 38.105469 41.835938 38.105469 41.835938 38.105469 41.839844 C 38.09375 41.859375 38.125 41.875 38.132812 41.855469 C 38.136719 41.855469 38.136719 41.851562 38.140625 41.847656 C 38.128906 41.84375 38.117188 41.839844 38.109375 41.835938 C 38.105469 41.835938 38.105469 41.839844 38.105469 41.839844 C 38.109375 41.835938 38.117188 41.835938 38.121094 41.832031 C 38.121094 41.832031 38.121094 41.832031 38.117188 41.832031 C 38.097656 41.832031 38.097656 41.867188 38.117188 41.867188 Z M 38.117188 41.867188 " fill-opacity="1" fill-rule="nonzero"/><path fill="#ffffff" d="M 38.96875 41.898438 C 38.6875 41.832031 38.40625 41.832031 38.121094 41.832031 C 38.113281 41.832031 38.109375 41.835938 38.105469 41.839844 C 37.957031 42.164062 37.921875 42.46875 38.085938 42.792969 C 38.289062 43.191406 38.695312 43.492188 38.980469 43.835938 C 38.988281 43.84375 39.003906 43.839844 39.007812 43.832031 C 39.207031 43.488281 39.410156 43.144531 39.488281 42.757812 C 39.503906 42.679688 39.535156 42.5 39.488281 42.421875 C 39.464844 42.382812 39.339844 42.304688 39.289062 42.261719 C 39.171875 42.15625 39.070312 42.03125 38.976562 41.90625 C 38.964844 41.890625 38.933594 41.90625 38.945312 41.925781 C 39.042969 42.050781 39.148438 42.171875 39.265625 42.285156 C 39.472656 42.484375 39.492188 42.632812 39.417969 42.914062 C 39.355469 43.140625 39.242188 43.351562 39.128906 43.554688 C 39.089844 43.621094 39.050781 43.6875 39.011719 43.757812 C 38.984375 43.804688 38.785156 43.5625 38.769531 43.542969 C 38.496094 43.246094 38.171875 42.976562 38.039062 42.597656 C 38 42.480469 37.960938 41.867188 38.207031 41.867188 C 38.460938 41.863281 38.710938 41.871094 38.957031 41.933594 C 38.980469 41.9375 38.988281 41.90625 38.96875 41.898438 Z M 38.96875 41.898438 " fill-opacity="1" fill-rule="nonzero"/><g clip-path="url(#840e0f1abe)"><path fill="#ffffff" d="M 38.917969 41.875 C 39.207031 42.257812 39.550781 42.566406 40.023438 42.71875 C 40.546875 42.886719 41.136719 42.84375 41.675781 42.851562 C 41.6875 42.851562 41.699219 42.835938 41.691406 42.824219 C 41.132812 42.09375 39.839844 41.804688 38.933594 41.851562 C 38.910156 41.851562 38.910156 41.882812 38.933594 41.882812 C 39.8125 41.839844 40.980469 42.113281 41.585938 42.75 C 41.679688 42.847656 41.363281 42.816406 41.328125 42.816406 C 41.195312 42.8125 41.0625 42.8125 40.929688 42.808594 C 40.691406 42.800781 40.457031 42.78125 40.226562 42.734375 C 39.671875 42.625 39.265625 42.28125 38.949219 41.859375 C 38.933594 41.839844 38.902344 41.855469 38.917969 41.875 Z M 38.917969 41.875 " fill-opacity="1" fill-rule="nonzero"/></g></svg>