<svg xmlns="http://www.w3.org/2000/svg" xmlns:xlink="http://www.w3.org/1999/xlink" width="100" zoomAndPan="magnify" viewBox="0 0 75 56.249996" height="75" preserveAspectRatio="xMidYMid meet" version="1.0"><defs><clipPath id="7cb0681954"><path d="M 0.492188 0 L 74.503906 0 L 74.503906 55.511719 L 0.492188 55.511719 Z M 0.492188 0 " clip-rule="nonzero"/></clipPath><clipPath id="7913cc5400"><path d="M 19.289062 0.886719 L 55.554688 0.886719 L 55.554688 37.15625 L 19.289062 37.15625 Z M 19.289062 0.886719 " clip-rule="nonzero"/></clipPath><clipPath id="0bb133052c"><path d="M 35.886719 38 L 57.351562 38 L 57.351562 50.078125 L 35.886719 50.078125 Z M 35.886719 38 " clip-rule="nonzero"/></clipPath><clipPath id="9104f9150d"><path d="M 35.886719 41 L 57.351562 41 L 57.351562 46 L 35.886719 46 Z M 35.886719 41 " clip-rule="nonzero"/></clipPath><clipPath id="2cb28c0254"><path d="M 36 36.015625 L 57 36.015625 L 57 48 L 36 48 Z M 36 36.015625 " clip-rule="nonzero"/></clipPath><clipPath id="2da23124e2"><path d="M 35.886719 36.015625 L 57.351562 36.015625 L 57.351562 48 L 35.886719 48 Z M 35.886719 36.015625 " clip-rule="nonzero"/></clipPath><clipPath id="3af5b57575"><path d="M 45 36.015625 L 55 36.015625 L 55 40 L 45 40 Z M 45 36.015625 " clip-rule="nonzero"/></clipPath><clipPath id="ed7b964f5f"><path d="M 18.082031 37 L 32 37 L 32 50.285156 L 18.082031 50.285156 Z M 18.082031 37 " clip-rule="nonzero"/></clipPath><clipPath id="ebb4248f9b"><path d="M 27 36.222656 L 32.144531 36.222656 L 32.144531 41 L 27 41 Z M 27 36.222656 " clip-rule="nonzero"/></clipPath></defs><g clip-path="url(#7cb0681954)"><path fill="#ffffff" d="M 0.492188 0 L 74.507812 0 L 74.507812 55.511719 L 0.492188 55.511719 Z M 0.492188 0 " fill-opacity="1" fill-rule="nonzero"/><path fill="#ffffff" d="M 0.492188 0 L 74.507812 0 L 74.507812 55.511719 L 0.492188 55.511719 Z M 0.492188 0 " fill-opacity="1" fill-rule="nonzero"/></g><path fill="#8c52ff" d="M 32.886719 3.480469 L 31.59375 3.480469 L 31.59375 6.070312 L 32.886719 6.070312 L 32.886719 3.480469 " fill-opacity="1" fill-rule="nonzero"/><path fill="#8c52ff" d="M 46.488281 3.480469 L 45.191406 3.480469 L 45.191406 6.070312 L 46.488281 6.070312 L 46.488281 3.480469 " fill-opacity="1" fill-rule="nonzero"/><path fill="#8c52ff" d="M 31.59375 22.90625 L 32.886719 22.90625 L 32.886719 20.316406 L 31.59375 20.316406 L 31.59375 22.90625 " fill-opacity="1" fill-rule="nonzero"/><g clip-path="url(#7913cc5400)"><path fill="#8c52ff" d="M 49.078125 31.972656 C 49.433594 31.972656 49.726562 31.683594 49.726562 31.324219 L 49.726562 20.964844 C 49.726562 20.609375 49.433594 20.316406 49.078125 20.316406 L 47.78125 20.316406 L 47.78125 24.203125 L 43.898438 24.203125 L 43.898438 20.316406 L 38.066406 20.316406 L 38.066406 31.972656 L 36.773438 31.972656 L 36.773438 20.316406 L 34.183594 20.316406 L 34.183594 24.203125 L 30.296875 24.203125 L 30.296875 20.316406 L 25.761719 20.316406 C 25.40625 20.316406 25.117188 20.609375 25.117188 20.964844 L 25.117188 31.324219 C 25.117188 31.683594 25.40625 31.972656 25.761719 31.972656 L 20.582031 31.972656 L 20.582031 16.429688 L 54.257812 16.429688 L 54.257812 31.972656 Z M 54.90625 0.886719 C 54.550781 0.886719 54.257812 1.179688 54.257812 1.535156 L 54.257812 15.136719 L 49.078125 15.136719 C 49.433594 15.136719 49.726562 14.84375 49.726562 14.488281 L 49.726562 4.125 C 49.726562 3.769531 49.433594 3.480469 49.078125 3.480469 L 47.78125 3.480469 L 47.78125 7.363281 L 43.898438 7.363281 L 43.898438 3.480469 L 38.066406 3.480469 L 38.066406 15.136719 L 36.773438 15.136719 L 36.773438 3.480469 L 34.183594 3.480469 L 34.183594 7.363281 L 30.296875 7.363281 L 30.296875 3.480469 L 25.761719 3.480469 C 25.40625 3.480469 25.117188 3.769531 25.117188 4.125 L 25.117188 14.488281 C 25.117188 14.84375 25.40625 15.136719 25.761719 15.136719 L 20.582031 15.136719 L 20.582031 1.535156 C 20.582031 1.179688 20.292969 0.886719 19.933594 0.886719 C 19.578125 0.886719 19.289062 1.179688 19.289062 1.535156 L 19.289062 36.507812 C 19.289062 36.863281 19.578125 37.15625 19.933594 37.15625 C 20.292969 37.15625 20.582031 36.863281 20.582031 36.507812 L 20.582031 33.269531 L 54.257812 33.269531 L 54.257812 36.507812 C 54.257812 36.863281 54.550781 37.15625 54.90625 37.15625 C 55.261719 37.15625 55.554688 36.863281 55.554688 36.507812 L 55.554688 1.535156 C 55.554688 1.179688 55.261719 0.886719 54.90625 0.886719 " fill-opacity="1" fill-rule="nonzero"/></g><path fill="#8c52ff" d="M 45.191406 22.90625 L 46.488281 22.90625 L 46.488281 20.316406 L 45.191406 20.316406 L 45.191406 22.90625 " fill-opacity="1" fill-rule="nonzero"/><g clip-path="url(#0bb133052c)"><path fill="#8c52ff" d="M 46.617188 38.574219 C 40.953125 38.574219 35.914062 40.785156 35.914062 44.324219 C 35.914062 46.980469 38.433594 49.191406 42.210938 49.191406 C 44.386719 49.191406 46.6875 47.859375 48.335938 47.859375 C 48.394531 47.859375 48.453125 47.863281 48.507812 47.863281 C 50.96875 48.015625 51.027344 50.078125 54.175781 50.078125 C 55.648438 50.078125 57.324219 48.75 57.324219 45.652344 C 57.324219 41.671875 52.914062 38.574219 46.617188 38.574219 Z M 46.617188 38.574219 " fill-opacity="1" fill-rule="nonzero"/></g><g clip-path="url(#9104f9150d)"><path fill="#8c52ff" d="M 56.0625 43.046875 L 57.324219 43.046875 L 57.324219 45.605469 L 56.0625 45.605469 Z M 35.914062 41.769531 L 37.171875 41.769531 L 37.171875 44.324219 L 35.914062 44.324219 Z M 35.914062 41.769531 " fill-opacity="1" fill-rule="nonzero"/></g><g clip-path="url(#2cb28c0254)"><path fill="#ffffff" d="M 54.175781 47.078125 C 52.746094 47.078125 52.109375 46.597656 51.371094 46.039062 C 50.695312 45.527344 49.933594 44.953125 48.5625 44.867188 C 48.488281 44.863281 48.414062 44.859375 48.335938 44.859375 C 47.433594 44.859375 46.460938 45.167969 45.429688 45.496094 C 44.351562 45.839844 43.238281 46.195312 42.210938 46.195312 C 38.925781 46.195312 36.542969 44.332031 36.542969 41.769531 C 36.542969 38.320312 41.734375 36.457031 46.617188 36.457031 C 52.457031 36.457031 56.695312 39.25 56.695312 43.097656 C 56.695312 46.019531 55.1875 47.078125 54.175781 47.078125 Z M 54.175781 47.078125 " fill-opacity="1" fill-rule="nonzero"/></g><g clip-path="url(#2da23124e2)"><path fill="#8c52ff" d="M 46.617188 36.902344 C 52.089844 36.902344 56.0625 39.507812 56.0625 43.097656 C 56.0625 45.746094 54.765625 46.636719 54.175781 46.636719 C 53.019531 46.636719 52.546875 46.277344 51.832031 45.738281 C 51.117188 45.195312 50.230469 44.523438 48.617188 44.425781 C 48.523438 44.421875 48.429688 44.417969 48.335938 44.417969 C 47.296875 44.417969 46.265625 44.746094 45.171875 45.09375 C 44.152344 45.417969 43.101562 45.75 42.210938 45.75 C 39.707031 45.75 37.171875 44.382812 37.171875 41.769531 C 37.171875 38.605469 42.039062 36.902344 46.617188 36.902344 M 46.617188 36.015625 C 40.953125 36.015625 35.914062 38.226562 35.914062 41.769531 C 35.914062 44.421875 38.433594 46.636719 42.210938 46.636719 C 44.386719 46.636719 46.6875 45.304688 48.335938 45.304688 C 48.394531 45.304688 48.453125 45.304688 48.507812 45.308594 C 50.96875 45.457031 51.027344 47.519531 54.175781 47.519531 C 55.648438 47.519531 57.324219 46.195312 57.324219 43.097656 C 57.324219 39.113281 52.914062 36.015625 46.617188 36.015625 Z M 46.617188 36.015625 " fill-opacity="1" fill-rule="nonzero"/></g><g clip-path="url(#3af5b57575)"><path fill="#8c52ff" d="M 45.460938 36.9375 C 45.460938 36.9375 47.25 36.902344 48.507812 37.785156 C 49.136719 38.226562 48.71875 39.222656 48.71875 39.222656 L 49.765625 39.554688 C 49.765625 39.554688 49.726562 39.023438 51.65625 38.671875 C 53.074219 38.414062 54.515625 39.554688 54.515625 39.554688 C 54.515625 39.554688 52.914062 37.34375 49.765625 36.902344 C 46.617188 36.457031 45.460938 36.9375 45.460938 36.9375 Z M 45.460938 36.9375 " fill-opacity="1" fill-rule="nonzero"/></g><path fill="#ffffff" d="M 51.027344 40.441406 C 51.027344 41.417969 49.898438 42.210938 48.507812 42.210938 C 47.117188 42.210938 45.988281 41.417969 45.988281 40.441406 C 45.988281 39.464844 47.117188 38.671875 48.507812 38.671875 C 49.898438 38.671875 51.027344 39.464844 51.027344 40.441406 Z M 51.027344 40.441406 " fill-opacity="1" fill-rule="nonzero"/><path fill="#8c52ff" d="M 49.765625 40.441406 C 49.765625 40.929688 49.203125 41.324219 48.507812 41.324219 C 47.8125 41.324219 47.25 40.929688 47.25 40.441406 C 47.25 39.953125 47.8125 39.554688 48.507812 39.554688 C 49.203125 39.554688 49.765625 39.953125 49.765625 40.441406 Z M 49.765625 40.441406 " fill-opacity="1" fill-rule="nonzero"/><g clip-path="url(#ed7b964f5f)"><path fill="#8c52ff" d="M 18.082031 45.34375 C 18.160156 45.089844 18.332031 44.992188 18.59375 44.976562 C 19.574219 44.917969 20.554688 44.84375 21.539062 44.773438 C 21.558594 44.773438 21.582031 44.769531 21.621094 44.765625 C 21.652344 44.550781 21.675781 44.335938 21.710938 44.121094 C 21.890625 42.960938 22.195312 41.835938 22.722656 40.777344 C 23.492188 39.21875 24.664062 38.066406 26.234375 37.328125 C 26.472656 37.214844 26.71875 37.113281 26.96875 37.003906 C 27.535156 39.367188 29.007812 40.8125 31.347656 41.402344 C 30.8125 42.792969 30.015625 43.988281 28.8125 44.886719 C 27.695312 45.71875 26.429688 46.210938 25.078125 46.492188 C 24.628906 46.585938 24.175781 46.648438 23.726562 46.714844 C 23.632812 46.730469 23.609375 46.761719 23.601562 46.851562 C 23.539062 47.824219 23.46875 48.796875 23.410156 49.769531 C 23.394531 50.011719 23.320312 50.195312 23.082031 50.285156 L 22.890625 50.285156 C 22.71875 50.222656 22.625 50.09375 22.558594 49.929688 C 22.167969 49.003906 21.769531 48.082031 21.378906 47.15625 C 21.347656 47.074219 21.289062 47.015625 21.203125 46.984375 C 20.289062 46.601562 19.378906 46.210938 18.464844 45.832031 C 18.28125 45.753906 18.140625 45.652344 18.085938 45.453125 Z M 18.082031 45.34375 " fill-opacity="1" fill-rule="nonzero"/></g><g clip-path="url(#ebb4248f9b)"><path fill="#8c52ff" d="M 27.785156 36.730469 C 28.1875 36.636719 28.589844 36.53125 28.996094 36.453125 C 29.820312 36.300781 30.652344 36.222656 31.492188 36.226562 C 31.882812 36.226562 32.136719 36.46875 32.136719 36.855469 C 32.136719 38.113281 31.976562 39.351562 31.625 40.566406 C 31.621094 40.578125 31.613281 40.589844 31.605469 40.601562 C 30.664062 40.40625 29.824219 40.007812 29.125 39.328125 C 28.355469 38.582031 27.882812 37.5625 27.785156 36.730469 Z M 30.003906 37.953125 C 29.890625 37.953125 29.792969 37.996094 29.714844 38.074219 C 29.632812 38.15625 29.59375 38.253906 29.597656 38.367188 C 29.601562 38.480469 29.640625 38.578125 29.722656 38.65625 C 29.804688 38.734375 29.902344 38.773438 30.015625 38.773438 C 30.128906 38.773438 30.222656 38.730469 30.300781 38.648438 C 30.378906 38.566406 30.417969 38.46875 30.417969 38.355469 C 30.417969 38.242188 30.375 38.148438 30.296875 38.066406 C 30.214844 37.988281 30.117188 37.949219 30.003906 37.953125 Z M 30.003906 37.953125 " fill-opacity="1" fill-rule="nonzero"/></g></svg>