<svg width="23" height="23" viewBox="0 0 23 23" fill="none" xmlns="http://www.w3.org/2000/svg">
<path d="M22.2782 5.02822L17.9718 0.721779C17.5096 0.259635 16.8828 3.41754e-06 16.2293 0H2.46429C1.10328 0 0 1.10328 0 2.46429V20.5357C0 21.8967 1.10328 23 2.46429 23H20.5357C21.8967 23 23 21.8967 23 20.5357V6.77073C23 6.11716 22.7404 5.49036 22.2782 5.02822ZM11.5 19.7143C9.68536 19.7143 8.21429 18.2432 8.21429 16.4286C8.21429 14.6139 9.68536 13.1429 11.5 13.1429C13.3146 13.1429 14.7857 14.6139 14.7857 16.4286C14.7857 18.2432 13.3146 19.7143 11.5 19.7143ZM16.4286 4.08045V9.24107C16.4286 9.5813 16.1527 9.85714 15.8125 9.85714H3.90179C3.56156 9.85714 3.28571 9.5813 3.28571 9.24107V3.90179C3.28571 3.56156 3.56156 3.28571 3.90179 3.28571H15.6338C15.7973 3.28571 15.9539 3.35061 16.0695 3.46617L16.2481 3.64483C16.3053 3.70203 16.3507 3.76994 16.3817 3.84469C16.4126 3.91943 16.4286 3.99954 16.4286 4.08045Z" fill="black"/>
</svg>
