<svg xmlns="http://www.w3.org/2000/svg" xmlns:xlink="http://www.w3.org/1999/xlink" width="117" zoomAndPan="magnify" viewBox="0 0 87.75 30.000001" height="40" preserveAspectRatio="xMidYMid meet" version="1.0"><defs><g/><clipPath id="11efe715dd"><path d="M 20 2.191406 L 22 2.191406 L 22 4 L 20 4 Z M 20 2.191406 " clip-rule="nonzero"/></clipPath><clipPath id="7d9e0fb5e3"><path d="M 11 23 L 16 23 L 16 26.9375 L 11 26.9375 Z M 11 23 " clip-rule="nonzero"/></clipPath><clipPath id="c9b53ad3a1"><path d="M 11 2.191406 L 21 2.191406 L 21 4 L 11 4 Z M 11 2.191406 " clip-rule="nonzero"/></clipPath><clipPath id="0a540bcceb"><path d="M 17 23 L 23 23 L 23 26.9375 L 17 26.9375 Z M 17 23 " clip-rule="nonzero"/></clipPath><clipPath id="ef33ac1a2f"><path d="M 9.757812 10 L 13 10 L 13 22 L 9.757812 22 Z M 9.757812 10 " clip-rule="nonzero"/></clipPath><clipPath id="a136973dde"><path d="M 20 10 L 23.589844 10 L 23.589844 22 L 20 22 Z M 20 10 " clip-rule="nonzero"/></clipPath></defs><path fill="#ffffff" d="M 20.128906 8.820312 L 20.128906 3.960938 L 13.214844 3.960938 L 13.214844 8.820312 C 13.214844 9.550781 13.796875 10.144531 14.511719 10.144531 L 18.835938 10.144531 C 19.550781 10.144531 20.128906 9.550781 20.128906 8.820312 Z M 14.945312 5.726562 C 14.707031 5.726562 14.511719 5.53125 14.511719 5.285156 C 14.511719 5.042969 14.707031 4.84375 14.945312 4.84375 C 15.183594 4.84375 15.375 5.042969 15.375 5.285156 C 15.375 5.53125 15.183594 5.726562 14.945312 5.726562 Z M 15.855469 5.972656 L 16.285156 5.089844 C 16.394531 4.871094 16.652344 4.78125 16.867188 4.890625 C 17.082031 5 17.167969 5.265625 17.058594 5.484375 L 16.765625 6.082031 L 16.980469 6.300781 C 17.148438 6.472656 17.148438 6.75 16.980469 6.925781 C 16.894531 7.011719 16.785156 7.054688 16.671875 7.054688 C 16.5625 7.054688 16.453125 7.011719 16.367188 6.925781 L 15.9375 6.480469 C 15.804688 6.347656 15.773438 6.140625 15.855469 5.972656 Z M 17.105469 8.820312 L 16.671875 8.820312 C 16.433594 8.820312 16.242188 8.621094 16.242188 8.378906 C 16.242188 8.136719 16.433594 7.9375 16.671875 7.9375 L 17.105469 7.9375 C 17.582031 7.9375 17.96875 7.539062 17.96875 7.054688 C 17.96875 6.808594 18.164062 6.613281 18.402344 6.613281 C 18.640625 6.613281 18.835938 6.808594 18.835938 7.054688 C 18.835938 8.027344 18.058594 8.820312 17.105469 8.820312 Z M 18.402344 5.726562 C 18.164062 5.726562 17.96875 5.53125 17.96875 5.285156 C 17.96875 5.042969 18.164062 4.84375 18.402344 4.84375 C 18.640625 4.84375 18.835938 5.042969 18.835938 5.285156 C 18.835938 5.53125 18.640625 5.726562 18.402344 5.726562 Z M 18.402344 5.726562 " fill-opacity="1" fill-rule="nonzero"/><g clip-path="url(#11efe715dd)"><path fill="#ffffff" d="M 20.996094 2.195312 L 20.996094 3.078125 L 21.859375 2.195312 Z M 20.996094 2.195312 " fill-opacity="1" fill-rule="nonzero"/></g><path fill="#ffffff" d="M 16.253906 17.992188 C 16.292969 17.835938 16.40625 17.714844 16.558594 17.671875 C 16.707031 17.628906 16.867188 17.675781 16.980469 17.785156 L 17.347656 18.160156 C 17.441406 17.75 17.539062 17.140625 17.539062 16.332031 C 17.539062 15.101562 17.078125 14.089844 16.859375 13.679688 L 16.492188 13.679688 C 16.273438 14.109375 15.808594 15.207031 15.808594 16.773438 C 15.808594 17.601562 15.9375 18.226562 16.089844 18.667969 Z M 16.253906 17.992188 " fill-opacity="1" fill-rule="nonzero"/><path fill="#ffffff" d="M 20.996094 3.980469 L 20.996094 4.84375 L 21.859375 4.84375 C 21.730469 4.46875 21.363281 4.117188 20.996094 3.980469 Z M 20.996094 3.980469 " fill-opacity="1" fill-rule="nonzero"/><path fill="#ffffff" d="M 16.941406 12.347656 L 17.042969 12.03125 L 16.671875 11.65625 L 16.304688 12.03125 L 16.40625 12.347656 C 16.492188 12.351562 16.582031 12.355469 16.671875 12.355469 C 16.765625 12.355469 16.851562 12.351562 16.941406 12.347656 Z M 16.941406 12.347656 " fill-opacity="1" fill-rule="nonzero"/><path fill="#ffffff" d="M 17.898438 12.203125 C 18.804688 11.953125 19.351562 11.429688 19.679688 10.855469 C 19.417969 10.96875 19.132812 11.03125 18.835938 11.03125 L 17.285156 11.03125 L 17.84375 11.601562 C 17.960938 11.71875 18 11.894531 17.949219 12.054688 Z M 17.898438 12.203125 " fill-opacity="1" fill-rule="nonzero"/><path fill="#ffffff" d="M 16.0625 11.03125 L 14.511719 11.03125 C 14.214844 11.03125 13.929688 10.96875 13.667969 10.855469 C 13.996094 11.429688 14.542969 11.953125 15.449219 12.203125 L 15.398438 12.054688 C 15.347656 11.894531 15.386719 11.71875 15.503906 11.601562 Z M 16.0625 11.03125 " fill-opacity="1" fill-rule="nonzero"/><path fill="#ffffff" d="M 11.917969 18.878906 L 11.917969 19.65625 L 12.679688 19.34375 Z M 11.917969 18.878906 " fill-opacity="1" fill-rule="nonzero"/><g clip-path="url(#7d9e0fb5e3)"><path fill="#ffffff" d="M 13.773438 24.597656 L 12.785156 23.582031 L 12.785156 25.609375 C 12.785156 25.855469 12.589844 26.050781 12.351562 26.050781 C 11.789062 26.050781 11.308594 26.421875 11.128906 26.9375 L 15.375 26.9375 L 15.375 23.582031 L 14.386719 24.597656 C 14.21875 24.769531 13.945312 24.769531 13.773438 24.597656 Z M 13.773438 24.597656 " fill-opacity="1" fill-rule="nonzero"/></g><g clip-path="url(#c9b53ad3a1)"><path fill="#ffffff" d="M 18.835938 2.195312 L 12.351562 2.195312 C 11.789062 2.195312 11.308594 2.5625 11.128906 3.078125 L 20.058594 3.078125 C 19.878906 2.5625 19.398438 2.195312 18.835938 2.195312 Z M 18.835938 2.195312 " fill-opacity="1" fill-rule="nonzero"/></g><path fill="#ffffff" d="M 12.808594 10.175781 C 12.800781 10.167969 12.792969 10.15625 12.785156 10.144531 L 12.785156 10.183594 Z M 12.808594 10.175781 " fill-opacity="1" fill-rule="nonzero"/><g clip-path="url(#0a540bcceb)"><path fill="#ffffff" d="M 20.5625 25.609375 L 20.5625 23.582031 L 19.570312 24.597656 C 19.402344 24.769531 19.128906 24.769531 18.960938 24.597656 L 17.96875 23.582031 L 17.96875 26.9375 L 22.21875 26.9375 C 22.039062 26.421875 21.558594 26.050781 20.996094 26.050781 C 20.757812 26.050781 20.5625 25.855469 20.5625 25.609375 Z M 20.5625 25.609375 " fill-opacity="1" fill-rule="nonzero"/></g><g clip-path="url(#ef33ac1a2f)"><path fill="#ffffff" d="M 11.75 10.773438 C 10.589844 11.207031 9.757812 12.347656 9.757812 13.679688 L 9.757812 18.984375 C 9.757812 20.015625 10.25 20.953125 11.054688 21.523438 L 11.054688 16.332031 C 11.054688 16.085938 11.25 15.890625 11.488281 15.890625 C 11.792969 15.890625 12.351562 14.882812 12.351562 13.238281 C 12.351562 12.070312 12.0625 11.160156 11.75 10.773438 Z M 11.75 10.773438 " fill-opacity="1" fill-rule="nonzero"/></g><g clip-path="url(#a136973dde)"><path fill="#ffffff" d="M 21.597656 10.773438 C 21.28125 11.160156 20.996094 12.070312 20.996094 13.238281 C 20.996094 14.882812 21.554688 15.890625 21.859375 15.890625 C 22.097656 15.890625 22.292969 16.085938 22.292969 16.332031 L 22.292969 21.523438 C 23.09375 20.953125 23.589844 20.015625 23.589844 18.984375 L 23.589844 13.679688 C 23.589844 12.347656 22.757812 11.207031 21.597656 10.773438 Z M 21.597656 10.773438 " fill-opacity="1" fill-rule="nonzero"/></g><path fill="#ffffff" d="M 15.011719 15.6875 C 15.023438 15.601562 15.035156 15.519531 15.046875 15.4375 L 14.511719 15.21875 L 14.511719 15.992188 Z M 15.011719 15.6875 " fill-opacity="1" fill-rule="nonzero"/><path fill="#ffffff" d="M 20.683594 15.890625 L 20.292969 16.886719 L 21.425781 17.117188 L 21.425781 16.675781 C 21.191406 16.5625 20.921875 16.335938 20.683594 15.890625 Z M 20.683594 15.890625 " fill-opacity="1" fill-rule="nonzero"/><path fill="#ffffff" d="M 18.402344 21.402344 L 18.402344 22.179688 L 19.160156 21.714844 Z M 18.402344 21.402344 " fill-opacity="1" fill-rule="nonzero"/><path fill="#ffffff" d="M 19.320312 17.425781 C 19.257812 17.308594 19.25 17.171875 19.296875 17.050781 L 20.160156 14.84375 C 20.1875 14.78125 20.222656 14.726562 20.269531 14.679688 C 20.179688 14.234375 20.128906 13.746094 20.128906 13.238281 C 20.128906 12.566406 20.214844 11.933594 20.371094 11.390625 C 19.898438 12.175781 19.0625 12.945312 17.582031 13.171875 L 17.578125 13.1875 C 17.828125 13.636719 18.402344 14.828125 18.402344 16.332031 C 18.402344 18.183594 17.945312 19.140625 17.925781 19.179688 C 17.863281 19.308594 17.742188 19.394531 17.605469 19.417969 C 17.46875 19.441406 17.332031 19.394531 17.230469 19.296875 L 16.90625 18.964844 L 16.660156 19.972656 C 16.621094 20.128906 16.507812 20.25 16.355469 20.292969 C 16.320312 20.304688 16.28125 20.308594 16.242188 20.308594 C 16.128906 20.308594 16.019531 20.261719 15.9375 20.179688 C 15.894531 20.136719 14.945312 19.136719 14.945312 16.773438 C 14.945312 16.769531 14.945312 16.765625 14.945312 16.757812 L 14.300781 17.152344 C 14.234375 17.195312 14.15625 17.214844 14.082031 17.214844 C 14.007812 17.214844 13.933594 17.195312 13.867188 17.15625 C 13.730469 17.078125 13.648438 16.933594 13.648438 16.773438 L 13.648438 14.566406 C 13.648438 14.417969 13.71875 14.28125 13.839844 14.199219 C 13.957031 14.117188 14.109375 14.101562 14.242188 14.15625 L 15.234375 14.5625 C 15.414062 13.902344 15.636719 13.433594 15.769531 13.1875 L 15.765625 13.171875 C 14.285156 12.945312 13.449219 12.175781 12.976562 11.390625 C 13.128906 11.933594 13.214844 12.566406 13.214844 13.238281 C 13.214844 14.125 13.070312 14.960938 12.800781 15.601562 C 12.53125 16.242188 12.203125 16.542969 11.917969 16.675781 L 11.917969 17.847656 L 13.871094 19.046875 C 14.011719 19.132812 14.09375 19.292969 14.078125 19.460938 C 14.066406 19.628906 13.960938 19.773438 13.808594 19.835938 L 11.917969 20.605469 L 11.917969 23.21875 L 12.476562 22.648438 C 12.648438 22.472656 12.921875 22.472656 13.089844 22.648438 L 14.082031 23.660156 L 15.070312 22.648438 C 15.238281 22.472656 15.511719 22.472656 15.683594 22.648438 L 16.671875 23.660156 L 17.539062 22.777344 L 17.539062 20.75 C 17.539062 20.601562 17.609375 20.464844 17.726562 20.382812 C 17.847656 20.300781 17.996094 20.285156 18.128906 20.339844 L 20.292969 21.222656 C 20.445312 21.285156 20.546875 21.429688 20.5625 21.597656 C 20.574219 21.765625 20.492188 21.925781 20.351562 22.011719 L 18.667969 23.046875 L 19.265625 23.660156 L 20.257812 22.648438 C 20.425781 22.472656 20.699219 22.472656 20.867188 22.648438 L 21.425781 23.21875 L 21.425781 18.019531 L 19.613281 17.648438 C 19.488281 17.621094 19.378906 17.542969 19.320312 17.425781 Z M 19.320312 17.425781 " fill-opacity="1" fill-rule="nonzero"/><g fill="#ffffff" fill-opacity="1"><g transform="translate(29.821091, 12.350179)"><g><path d="M 7.921875 -5.46875 L 8.046875 -7.734375 L 0.234375 -7.828125 L 0.234375 -5.8125 L 2.984375 -5.71875 L 3.125 0.046875 L 5.40625 -0.015625 L 5.234375 -5.640625 Z M 7.921875 -5.46875 "/></g></g></g><g fill="#ffffff" fill-opacity="1"><g transform="translate(38.099075, 12.350179)"><g><path d="M 0.390625 -8.234375 L 0.234375 -0.015625 L 2.703125 -0.015625 L 2.703125 -8.234375 Z M 0.390625 -8.234375 "/></g></g></g><g fill="#ffffff" fill-opacity="1"><g transform="translate(41.033044, 12.350179)"><g><path d="M 2.625 -4.546875 L 2.625 -5.859375 L 8.3125 -5.796875 L 8.3125 -7.84375 L 0.234375 -7.96875 L 0.3125 -0.015625 L 8.09375 0.015625 L 8.015625 -1.890625 L 2.6875 -2.03125 L 2.71875 -3.453125 L 7.09375 -3.375 L 7.15625 -4.453125 Z M 2.625 -4.546875 "/></g></g></g><g fill="#ffffff" fill-opacity="1"><g transform="translate(49.57881, 12.350179)"><g><path d="M 8.828125 0.03125 L 8.9375 -7.6875 L 6.78125 -7.6875 L 6.84375 -3.359375 L 3.5625 -7.640625 L 0.46875 -7.765625 L 0.234375 -0.015625 L 2.75 0.03125 L 2.921875 -5.296875 L 6.65625 -0.015625 Z M 8.828125 0.03125 "/></g></g></g><g fill="#ffffff" fill-opacity="1"><g transform="translate(58.753284, 12.350179)"><g><path d="M 0.234375 -0.015625 L 7 0 L 8.96875 -1.953125 L 9.109375 -5.546875 L 6.421875 -7.75 L 0.4375 -7.6875 Z M 2.578125 -2.4375 L 2.671875 -5.953125 L 5.375 -6.046875 L 6.421875 -5.15625 L 6.390625 -3.03125 L 5.328125 -2.34375 Z M 2.578125 -2.4375 "/></g></g></g><g fill="#ffffff" fill-opacity="1"><g transform="translate(68.1024, 12.350179)"><g><path d="M 8.3125 -0.015625 L 8.359375 -8.015625 L 0.53125 -8.28125 L 0.234375 -0.015625 L 2.765625 0 L 2.890625 -3.578125 L 6.09375 -3.515625 L 6.109375 -0.015625 Z M 6.09375 -6.59375 L 6.140625 -5.09375 L 2.796875 -5.21875 L 2.828125 -6.734375 Z M 6.09375 -6.59375 "/></g></g></g><g fill="#ffffff" fill-opacity="1"><g transform="translate(76.694737, 12.350179)"><g><path d="M 0.234375 -7.625 L 0.484375 -2.65625 L 5.6875 -2.875 L 5.703125 -1.734375 L 0.5625 -1.5625 L 0.65625 0.0625 L 7.796875 -0.078125 L 7.546875 -4.859375 L 2.5 -4.609375 L 2.421875 -5.703125 L 7.53125 -5.984375 L 7.34375 -8.078125 Z M 0.234375 -7.625 "/></g></g></g><g fill="#ffffff" fill-opacity="1"><g transform="translate(30.174991, 25.420322)"><g><path d="M 0.328125 -6.953125 L 0.203125 0 L 6.578125 0.046875 L 6.578125 -3.171875 L 5.53125 -3.390625 L 6.578125 -3.9375 L 6.578125 -6.953125 Z M 1.828125 -5.671875 L 4.796875 -5.734375 L 4.75 -4.25 L 1.859375 -4.25 Z M 4.796875 -1.140625 L 1.765625 -1.203125 L 1.859375 -2.625 L 4.84375 -2.671875 Z M 4.796875 -1.140625 "/></g></g></g><g fill="#ffffff" fill-opacity="1"><g transform="translate(36.949648, 25.420322)"><g><path d="M 7.046875 -0.015625 L 7.078125 -6.796875 L 0.4375 -7.015625 L 0.203125 -0.015625 L 2.34375 0 L 2.4375 -3.03125 L 5.15625 -2.984375 L 5.171875 -0.015625 Z M 5.171875 -5.59375 L 5.203125 -4.3125 L 2.359375 -4.421875 L 2.390625 -5.703125 Z M 5.171875 -5.59375 "/></g></g></g><g fill="#ffffff" fill-opacity="1"><g transform="translate(44.227228, 25.420322)"><g><path d="M 0.203125 -6.53125 L 0.296875 0 L 2.171875 -0.0625 L 2.234375 -5.125 L 4.578125 -5.0625 L 4.515625 0 L 5.796875 -0.0625 L 5.671875 -4.953125 L 8.34375 -4.796875 L 8.34375 -0.0625 L 10.25 0.0625 L 10.078125 -6.21875 Z M 0.203125 -6.53125 "/></g></g></g><g fill="#ffffff" fill-opacity="1"><g transform="translate(54.68012, 25.420322)"><g/></g></g><g fill="#ffffff" fill-opacity="1"><g transform="translate(59.867121, 25.420322)"><g><path d="M 0.328125 -6.953125 L 0.203125 0 L 6.578125 0.046875 L 6.578125 -3.171875 L 5.53125 -3.390625 L 6.578125 -3.9375 L 6.578125 -6.953125 Z M 1.828125 -5.671875 L 4.796875 -5.734375 L 4.75 -4.25 L 1.859375 -4.25 Z M 4.796875 -1.140625 L 1.765625 -1.203125 L 1.859375 -2.625 L 4.84375 -2.671875 Z M 4.796875 -1.140625 "/></g></g></g><g fill="#ffffff" fill-opacity="1"><g transform="translate(66.64178, 25.420322)"><g><path d="M 7.046875 -0.015625 L 7.078125 -6.796875 L 0.4375 -7.015625 L 0.203125 -0.015625 L 2.34375 0 L 2.4375 -3.03125 L 5.15625 -2.984375 L 5.171875 -0.015625 Z M 5.171875 -5.59375 L 5.203125 -4.3125 L 2.359375 -4.421875 L 2.390625 -5.703125 Z M 5.171875 -5.59375 "/></g></g></g><g fill="#ffffff" fill-opacity="1"><g transform="translate(73.919362, 25.420322)"><g><path d="M 0.203125 -6.53125 L 0.296875 0 L 2.171875 -0.0625 L 2.234375 -5.125 L 4.578125 -5.0625 L 4.515625 0 L 5.796875 -0.0625 L 5.671875 -4.953125 L 8.34375 -4.796875 L 8.34375 -0.0625 L 10.25 0.0625 L 10.078125 -6.21875 Z M 0.203125 -6.53125 "/></g></g></g></svg>