<svg xmlns="http://www.w3.org/2000/svg" xmlns:xlink="http://www.w3.org/1999/xlink" width="50" zoomAndPan="magnify" viewBox="0 0 37.5 30.000001" height="40" preserveAspectRatio="xMidYMid meet" version="1.0"><defs><g/><clipPath id="8a18bb1d7a"><path d="M 5.144531 3 L 10 3 L 10 9.5625 L 5.144531 9.5625 Z M 5.144531 3 " clip-rule="nonzero"/></clipPath><clipPath id="cb26846433"><path d="M 5.144531 0 L 14 0 L 14 4 L 5.144531 4 Z M 5.144531 0 " clip-rule="nonzero"/></clipPath><clipPath id="47872a67e3"><path d="M 9 3 L 14 3 L 14 9.5625 L 9 9.5625 Z M 9 3 " clip-rule="nonzero"/></clipPath><clipPath id="d4feb689c2"><path d="M 13 3 L 17 3 L 17 9.5625 L 13 9.5625 Z M 13 3 " clip-rule="nonzero"/></clipPath><clipPath id="4f676bca8d"><path d="M 12 3 L 17 3 L 17 9.5625 L 12 9.5625 Z M 12 3 " clip-rule="nonzero"/></clipPath><clipPath id="31f7ce3880"><path d="M 16 3 L 21 3 L 21 9.5625 L 16 9.5625 Z M 16 3 " clip-rule="nonzero"/></clipPath><clipPath id="6a110ac4ff"><path d="M 20 3 L 25 3 L 25 9.5625 L 20 9.5625 Z M 20 3 " clip-rule="nonzero"/></clipPath><clipPath id="6bab6ab9a7"><path d="M 24 3 L 29 3 L 29 9.5625 L 24 9.5625 Z M 24 3 " clip-rule="nonzero"/></clipPath><clipPath id="181ea9c662"><path d="M 28 3 L 32.355469 3 L 32.355469 9.5625 L 28 9.5625 Z M 28 3 " clip-rule="nonzero"/></clipPath><clipPath id="5b5938a047"><path d="M 24 0 L 32.355469 0 L 32.355469 4 L 24 4 Z M 24 0 " clip-rule="nonzero"/></clipPath></defs><g fill="#ffffff" fill-opacity="1"><g transform="translate(5.190271, 24.602031)"><g><path d="M 13.21875 -9.125 L 13.40625 -12.90625 L 0.390625 -13.0625 L 0.390625 -9.703125 L 4.984375 -9.53125 L 5.21875 0.078125 L 9.03125 -0.03125 L 8.734375 -9.390625 Z M 13.21875 -9.125 "/></g></g></g><g fill="#ffffff" fill-opacity="1"><g transform="translate(18.98036, 24.602031)"><g><path d="M 0.65625 -13.6875 L 0.390625 0 L 12.9375 0.09375 L 12.9375 -6.234375 L 10.890625 -6.671875 L 12.9375 -7.75 L 12.9375 -13.6875 Z M 3.59375 -11.15625 L 9.453125 -11.28125 L 9.359375 -8.359375 L 3.640625 -8.359375 Z M 9.453125 -2.25 L 3.46875 -2.375 L 3.640625 -5.15625 L 9.546875 -5.265625 Z M 9.453125 -2.25 "/></g></g></g><g clip-path="url(#8a18bb1d7a)"><path fill="#ffffff" d="M 5.347656 3.847656 L 5.347656 7.5625 C 5.347656 8.585938 6.203125 9.417969 7.261719 9.417969 C 8.320312 9.417969 9.175781 8.585938 9.175781 7.5625 L 9.175781 3.847656 L 5.347656 3.847656 " fill-opacity="1" fill-rule="nonzero"/><path fill="#231f20" d="M 5.347656 3.847656 L 5.203125 3.847656 L 5.203125 7.5625 C 5.203125 8.664062 6.125 9.554688 7.261719 9.554688 C 8.398438 9.554688 9.320312 8.664062 9.320312 7.5625 L 9.320312 3.847656 C 9.320312 3.8125 9.304688 3.777344 9.277344 3.75 C 9.25 3.722656 9.214844 3.710938 9.175781 3.710938 L 5.347656 3.710938 C 5.308594 3.710938 5.273438 3.722656 5.246094 3.75 C 5.21875 3.777344 5.203125 3.8125 5.203125 3.847656 L 5.347656 3.847656 L 5.347656 3.988281 L 9.03125 3.988281 L 9.03125 7.5625 C 9.03125 8.035156 8.832031 8.464844 8.511719 8.773438 C 8.191406 9.085938 7.75 9.277344 7.261719 9.277344 C 6.773438 9.277344 6.332031 9.085938 6.007812 8.773438 C 5.6875 8.464844 5.492188 8.035156 5.492188 7.5625 L 5.492188 3.847656 L 5.347656 3.847656 L 5.347656 3.988281 L 5.347656 3.847656 " fill-opacity="1" fill-rule="nonzero"/></g><g clip-path="url(#cb26846433)"><path fill="#ffffff" d="M 13.191406 0.136719 L 10.96875 0.136719 L 5.347656 3.847656 L 9.175781 3.847656 L 13.191406 0.136719 " fill-opacity="1" fill-rule="nonzero"/><path fill="#231f20" d="M 13.191406 0.136719 L 13.191406 -0.00390625 L 10.96875 -0.00390625 C 10.941406 -0.00390625 10.914062 0.00390625 10.886719 0.0195312 L 5.265625 3.734375 C 5.214844 3.769531 5.191406 3.832031 5.210938 3.890625 C 5.226562 3.949219 5.285156 3.988281 5.347656 3.988281 L 9.175781 3.988281 C 9.210938 3.988281 9.246094 3.972656 9.273438 3.949219 L 13.289062 0.238281 C 13.332031 0.199219 13.347656 0.136719 13.324219 0.0859375 C 13.304688 0.03125 13.25 -0.00390625 13.191406 -0.00390625 L 13.191406 0.136719 L 13.09375 0.0351562 L 9.117188 3.710938 L 5.8125 3.710938 L 11.011719 0.277344 L 13.191406 0.277344 L 13.191406 0.136719 L 13.09375 0.0351562 L 13.191406 0.136719 " fill-opacity="1" fill-rule="nonzero"/></g><g clip-path="url(#47872a67e3)"><path fill="#ffffff" d="M 9.175781 3.847656 L 9.175781 7.5625 C 9.175781 8.585938 10.03125 9.417969 11.089844 9.417969 C 12.148438 9.417969 13.003906 8.585938 13.003906 7.5625 L 13.003906 3.847656 L 9.175781 3.847656 " fill-opacity="1" fill-rule="nonzero"/><path fill="#231f20" d="M 9.175781 3.847656 L 9.03125 3.847656 L 9.03125 7.5625 C 9.03125 8.664062 9.953125 9.554688 11.089844 9.554688 C 12.226562 9.554688 13.148438 8.664062 13.148438 7.5625 L 13.148438 3.847656 C 13.148438 3.8125 13.132812 3.777344 13.105469 3.75 C 13.078125 3.722656 13.042969 3.710938 13.003906 3.710938 L 9.175781 3.710938 C 9.136719 3.710938 9.101562 3.722656 9.074219 3.75 C 9.046875 3.777344 9.03125 3.8125 9.03125 3.847656 L 9.175781 3.847656 L 9.175781 3.988281 L 12.859375 3.988281 L 12.859375 7.5625 C 12.859375 8.035156 12.660156 8.464844 12.339844 8.773438 C 12.019531 9.085938 11.578125 9.277344 11.089844 9.277344 C 10.601562 9.277344 10.160156 9.085938 9.835938 8.773438 C 9.515625 8.464844 9.320312 8.035156 9.320312 7.5625 L 9.320312 3.847656 L 9.175781 3.847656 L 9.175781 3.988281 L 9.175781 3.847656 " fill-opacity="1" fill-rule="nonzero"/></g><path fill="#ffffff" d="M 15.414062 0.136719 L 13.191406 0.136719 L 9.175781 3.847656 L 13.003906 3.847656 L 15.414062 0.136719 " fill-opacity="1" fill-rule="nonzero"/><path fill="#231f20" d="M 15.414062 0.136719 L 15.414062 -0.00390625 L 13.191406 -0.00390625 C 13.15625 -0.00390625 13.117188 0.0117188 13.09375 0.0351562 L 9.074219 3.746094 C 9.035156 3.785156 9.019531 3.847656 9.042969 3.902344 C 9.0625 3.953125 9.117188 3.988281 9.175781 3.988281 L 13.003906 3.988281 C 13.054688 3.988281 13.097656 3.964844 13.125 3.921875 L 15.535156 0.210938 C 15.5625 0.167969 15.5625 0.113281 15.539062 0.0703125 C 15.511719 0.0234375 15.464844 -0.00390625 15.414062 -0.00390625 L 15.414062 0.136719 L 15.292969 0.0625 L 12.925781 3.710938 L 9.535156 3.710938 L 13.25 0.277344 L 15.414062 0.277344 L 15.414062 0.136719 L 15.292969 0.0625 L 15.414062 0.136719 " fill-opacity="1" fill-rule="nonzero"/><g clip-path="url(#d4feb689c2)"><path fill="#ffffff" d="M 13.003906 3.847656 L 13.003906 7.5625 C 13.003906 8.585938 13.859375 9.417969 14.917969 9.417969 C 15.976562 9.417969 16.832031 8.585938 16.832031 7.5625 L 16.832031 3.847656 L 13.003906 3.847656 " fill-opacity="1" fill-rule="nonzero"/></g><g clip-path="url(#4f676bca8d)"><path fill="#231f20" d="M 13.003906 3.847656 L 12.859375 3.847656 L 12.859375 7.5625 C 12.859375 8.664062 13.78125 9.554688 14.917969 9.554688 C 16.054688 9.554688 16.976562 8.664062 16.976562 7.5625 L 16.976562 3.847656 C 16.976562 3.8125 16.960938 3.777344 16.933594 3.75 C 16.90625 3.722656 16.871094 3.710938 16.832031 3.710938 L 13.003906 3.710938 C 12.964844 3.710938 12.929688 3.722656 12.902344 3.75 C 12.875 3.777344 12.859375 3.8125 12.859375 3.847656 L 13.003906 3.847656 L 13.003906 3.988281 L 16.6875 3.988281 L 16.6875 7.5625 C 16.6875 8.035156 16.492188 8.464844 16.167969 8.773438 C 15.847656 9.085938 15.40625 9.277344 14.917969 9.277344 C 14.429688 9.277344 13.988281 9.085938 13.664062 8.773438 C 13.34375 8.464844 13.148438 8.035156 13.148438 7.5625 L 13.148438 3.847656 L 13.003906 3.847656 L 13.003906 3.988281 L 13.003906 3.847656 " fill-opacity="1" fill-rule="nonzero"/></g><path fill="#ffffff" d="M 17.632812 0.136719 L 15.414062 0.136719 L 13.003906 3.847656 L 16.832031 3.847656 L 17.632812 0.136719 " fill-opacity="1" fill-rule="nonzero"/><path fill="#231f20" d="M 17.632812 0.136719 L 17.632812 -0.00390625 L 15.414062 -0.00390625 C 15.363281 -0.00390625 15.316406 0.0234375 15.292969 0.0625 L 12.882812 3.773438 C 12.855469 3.816406 12.851562 3.871094 12.878906 3.914062 C 12.902344 3.960938 12.953125 3.988281 13.003906 3.988281 L 16.832031 3.988281 C 16.898438 3.988281 16.957031 3.941406 16.972656 3.878906 L 17.777344 0.164062 C 17.785156 0.125 17.773438 0.0820312 17.746094 0.046875 C 17.71875 0.015625 17.679688 -0.00390625 17.632812 -0.00390625 L 17.632812 0.136719 L 17.496094 0.109375 L 16.714844 3.710938 L 13.261719 3.710938 L 15.492188 0.277344 L 17.632812 0.277344 L 17.632812 0.136719 L 17.496094 0.109375 L 17.632812 0.136719 " fill-opacity="1" fill-rule="nonzero"/><g clip-path="url(#31f7ce3880)"><path fill="#ffffff" d="M 16.832031 3.847656 L 16.832031 7.5625 C 16.832031 8.585938 17.6875 9.417969 18.746094 9.417969 C 19.804688 9.417969 20.660156 8.585938 20.660156 7.5625 L 20.660156 3.847656 L 16.832031 3.847656 " fill-opacity="1" fill-rule="nonzero"/><path fill="#231f20" d="M 16.832031 3.847656 L 16.6875 3.847656 L 16.6875 7.5625 C 16.6875 8.664062 17.609375 9.554688 18.746094 9.554688 C 19.882812 9.554688 20.804688 8.664062 20.804688 7.5625 L 20.804688 3.847656 C 20.804688 3.8125 20.789062 3.777344 20.761719 3.75 C 20.734375 3.722656 20.699219 3.710938 20.660156 3.710938 L 16.832031 3.710938 C 16.792969 3.710938 16.757812 3.722656 16.730469 3.75 C 16.703125 3.777344 16.6875 3.8125 16.6875 3.847656 L 16.832031 3.847656 L 16.832031 3.988281 L 20.515625 3.988281 L 20.515625 7.5625 C 20.515625 8.035156 20.320312 8.464844 19.996094 8.773438 C 19.675781 9.085938 19.234375 9.277344 18.746094 9.277344 C 18.257812 9.277344 17.816406 9.085938 17.492188 8.773438 C 17.171875 8.464844 16.976562 8.035156 16.976562 7.5625 L 16.976562 3.847656 L 16.832031 3.847656 L 16.832031 3.988281 L 16.832031 3.847656 " fill-opacity="1" fill-rule="nonzero"/></g><path fill="#ffffff" d="M 19.855469 0.136719 L 17.632812 0.136719 L 16.832031 3.847656 L 20.660156 3.847656 L 19.855469 0.136719 " fill-opacity="1" fill-rule="nonzero"/><path fill="#231f20" d="M 19.855469 0.136719 L 19.855469 -0.00390625 L 17.632812 -0.00390625 C 17.566406 -0.00390625 17.507812 0.0429688 17.496094 0.109375 L 16.691406 3.820312 C 16.683594 3.859375 16.691406 3.902344 16.71875 3.9375 C 16.746094 3.96875 16.789062 3.988281 16.832031 3.988281 L 20.660156 3.988281 C 20.703125 3.988281 20.746094 3.96875 20.773438 3.9375 C 20.796875 3.902344 20.808594 3.859375 20.800781 3.820312 L 19.996094 0.109375 C 19.984375 0.0429688 19.925781 -0.00390625 19.855469 -0.00390625 L 19.855469 0.136719 L 19.714844 0.164062 L 20.484375 3.710938 L 17.007812 3.710938 L 17.75 0.277344 L 19.855469 0.277344 L 19.855469 0.136719 L 19.714844 0.164062 L 19.855469 0.136719 " fill-opacity="1" fill-rule="nonzero"/><g clip-path="url(#6a110ac4ff)"><path fill="#ffffff" d="M 20.660156 3.847656 L 20.660156 7.5625 C 20.660156 8.585938 21.515625 9.417969 22.574219 9.417969 C 23.632812 9.417969 24.488281 8.585938 24.488281 7.5625 L 24.488281 3.847656 L 20.660156 3.847656 " fill-opacity="1" fill-rule="nonzero"/><path fill="#231f20" d="M 20.660156 3.847656 L 20.515625 3.847656 L 20.515625 7.5625 C 20.515625 8.664062 21.4375 9.554688 22.574219 9.554688 C 23.710938 9.554688 24.632812 8.664062 24.632812 7.5625 L 24.632812 3.847656 C 24.632812 3.8125 24.617188 3.777344 24.589844 3.75 C 24.5625 3.722656 24.527344 3.710938 24.488281 3.710938 L 20.660156 3.710938 C 20.621094 3.710938 20.585938 3.722656 20.558594 3.75 C 20.53125 3.777344 20.515625 3.8125 20.515625 3.847656 L 20.660156 3.847656 L 20.660156 3.988281 L 24.34375 3.988281 L 24.34375 7.5625 C 24.34375 8.035156 24.148438 8.464844 23.828125 8.773438 C 23.503906 9.085938 23.0625 9.277344 22.574219 9.277344 C 22.085938 9.277344 21.644531 9.085938 21.320312 8.773438 C 21 8.464844 20.804688 8.035156 20.804688 7.5625 L 20.804688 3.847656 L 20.660156 3.847656 L 20.660156 3.988281 L 20.660156 3.847656 " fill-opacity="1" fill-rule="nonzero"/></g><path fill="#ffffff" d="M 22.078125 0.136719 L 19.855469 0.136719 L 20.660156 3.847656 L 24.488281 3.847656 L 22.078125 0.136719 " fill-opacity="1" fill-rule="nonzero"/><path fill="#231f20" d="M 22.078125 0.136719 L 22.078125 -0.00390625 L 19.855469 -0.00390625 C 19.8125 -0.00390625 19.773438 0.015625 19.746094 0.046875 C 19.71875 0.0820312 19.707031 0.125 19.714844 0.164062 L 20.519531 3.878906 C 20.535156 3.941406 20.59375 3.988281 20.660156 3.988281 L 24.488281 3.988281 C 24.539062 3.988281 24.589844 3.960938 24.613281 3.914062 C 24.640625 3.871094 24.636719 3.816406 24.609375 3.773438 L 22.199219 0.0625 C 22.175781 0.0234375 22.128906 -0.00390625 22.078125 -0.00390625 L 22.078125 0.136719 L 21.957031 0.210938 L 24.226562 3.710938 L 20.777344 3.710938 L 20.035156 0.277344 L 22.078125 0.277344 L 22.078125 0.136719 L 21.957031 0.210938 L 22.078125 0.136719 " fill-opacity="1" fill-rule="nonzero"/><g clip-path="url(#6bab6ab9a7)"><path fill="#ffffff" d="M 24.488281 3.847656 L 24.488281 7.5625 C 24.488281 8.585938 25.34375 9.417969 26.402344 9.417969 C 27.460938 9.417969 28.316406 8.585938 28.316406 7.5625 L 28.316406 3.847656 L 24.488281 3.847656 " fill-opacity="1" fill-rule="nonzero"/><path fill="#231f20" d="M 24.488281 3.847656 L 24.34375 3.847656 L 24.34375 7.5625 C 24.34375 8.664062 25.265625 9.554688 26.402344 9.554688 C 27.539062 9.554688 28.460938 8.664062 28.460938 7.5625 L 28.460938 3.847656 C 28.460938 3.8125 28.445312 3.777344 28.417969 3.75 C 28.390625 3.722656 28.355469 3.710938 28.316406 3.710938 L 24.488281 3.710938 C 24.449219 3.710938 24.414062 3.722656 24.386719 3.75 C 24.359375 3.777344 24.34375 3.8125 24.34375 3.847656 L 24.488281 3.847656 L 24.488281 3.988281 L 28.171875 3.988281 L 28.171875 7.5625 C 28.171875 8.035156 27.976562 8.464844 27.65625 8.773438 C 27.332031 9.085938 26.890625 9.277344 26.402344 9.277344 C 25.914062 9.277344 25.472656 9.085938 25.152344 8.773438 C 24.828125 8.464844 24.632812 8.035156 24.632812 7.5625 L 24.632812 3.847656 L 24.488281 3.847656 L 24.488281 3.988281 L 24.488281 3.847656 " fill-opacity="1" fill-rule="nonzero"/></g><path fill="#ffffff" d="M 24.300781 0.136719 L 22.078125 0.136719 L 24.488281 3.847656 L 28.316406 3.847656 L 24.300781 0.136719 " fill-opacity="1" fill-rule="nonzero"/><path fill="#231f20" d="M 24.300781 0.136719 L 24.300781 -0.00390625 L 22.078125 -0.00390625 C 22.027344 -0.00390625 21.980469 0.0234375 21.953125 0.0703125 C 21.929688 0.113281 21.929688 0.167969 21.957031 0.210938 L 24.367188 3.921875 C 24.394531 3.964844 24.4375 3.988281 24.488281 3.988281 L 28.316406 3.988281 C 28.375 3.988281 28.429688 3.953125 28.449219 3.902344 C 28.472656 3.847656 28.457031 3.785156 28.414062 3.746094 L 24.398438 0.0351562 C 24.375 0.0117188 24.339844 -0.00390625 24.300781 -0.00390625 L 24.300781 0.136719 L 24.203125 0.238281 L 27.957031 3.710938 L 24.566406 3.710938 L 22.339844 0.277344 L 24.300781 0.277344 L 24.300781 0.136719 L 24.203125 0.238281 L 24.300781 0.136719 " fill-opacity="1" fill-rule="nonzero"/><g clip-path="url(#181ea9c662)"><path fill="#ffffff" d="M 28.316406 3.847656 L 28.316406 7.5625 C 28.316406 8.585938 29.171875 9.417969 30.230469 9.417969 C 31.289062 9.417969 32.144531 8.585938 32.144531 7.5625 L 32.144531 3.847656 L 28.316406 3.847656 " fill-opacity="1" fill-rule="nonzero"/><path fill="#231f20" d="M 28.316406 3.847656 L 28.171875 3.847656 L 28.171875 7.5625 C 28.171875 8.664062 29.09375 9.554688 30.230469 9.554688 C 31.367188 9.554688 32.289062 8.664062 32.289062 7.5625 L 32.289062 3.847656 C 32.289062 3.8125 32.273438 3.777344 32.246094 3.75 C 32.21875 3.722656 32.183594 3.710938 32.144531 3.710938 L 28.316406 3.710938 C 28.277344 3.710938 28.242188 3.722656 28.214844 3.75 C 28.1875 3.777344 28.171875 3.8125 28.171875 3.847656 L 28.316406 3.847656 L 28.316406 3.988281 L 32 3.988281 L 32 7.5625 C 32 8.035156 31.804688 8.464844 31.484375 8.773438 C 31.160156 9.085938 30.71875 9.277344 30.230469 9.277344 C 29.742188 9.277344 29.300781 9.085938 28.980469 8.773438 C 28.65625 8.464844 28.460938 8.035156 28.460938 7.5625 L 28.460938 3.847656 L 28.316406 3.847656 L 28.316406 3.988281 L 28.316406 3.847656 " fill-opacity="1" fill-rule="nonzero"/></g><g clip-path="url(#5b5938a047)"><path fill="#ffffff" d="M 26.523438 0.136719 L 24.300781 0.136719 L 28.316406 3.847656 L 32.144531 3.847656 L 26.523438 0.136719 " fill-opacity="1" fill-rule="nonzero"/><path fill="#231f20" d="M 26.523438 0.136719 L 26.523438 -0.00390625 L 24.300781 -0.00390625 C 24.242188 -0.00390625 24.191406 0.03125 24.167969 0.0859375 C 24.144531 0.136719 24.160156 0.199219 24.203125 0.238281 L 28.21875 3.949219 C 28.242188 3.972656 28.28125 3.988281 28.316406 3.988281 L 32.144531 3.988281 C 32.207031 3.988281 32.261719 3.949219 32.28125 3.890625 C 32.300781 3.832031 32.277344 3.769531 32.226562 3.734375 L 26.605469 0.0195312 C 26.578125 0.00390625 26.550781 -0.00390625 26.523438 -0.00390625 L 26.523438 0.136719 L 26.441406 0.25 L 31.679688 3.710938 L 28.375 3.710938 L 24.660156 0.277344 L 26.523438 0.277344 L 26.523438 0.136719 L 26.441406 0.25 L 26.523438 0.136719 " fill-opacity="1" fill-rule="nonzero"/></g></svg>