<svg width="23" height="22" viewBox="0 0 23 22" fill="none" xmlns="http://www.w3.org/2000/svg">
<path d="M6.27789 18.93C6.27789 19.53 7.20789 19.83 9.06789 19.83L8.79789 21.135C7.41789 21.045 6.15789 21 5.01789 21L0.652891 21.135L0.787891 19.83C1.56789 19.83 2.13789 19.725 2.49789 19.515C2.88789 19.305 3.26289 18.99 3.62289 18.57L9.65289 11.01L4.16289 3.045C3.59289 2.205 2.72289 1.785 1.55289 1.785L1.41789 0.479999C3.81789 0.569999 5.57289 0.615 6.68289 0.615L10.5079 0.479999L10.6429 1.785C8.96289 1.785 8.12289 2.085 8.12289 2.685C8.12289 2.835 9.47289 4.815 12.1729 8.625C14.9329 4.905 16.3129 2.94 16.3129 2.73C16.3129 2.1 15.5479 1.785 14.0179 1.785L13.8829 0.479999C15.3529 0.569999 16.6579 0.615 17.7979 0.615L21.4879 0.479999L21.6229 1.785C20.5429 1.875 19.6279 2.385 18.8779 3.315L13.4329 10.38L19.3279 18.435C19.9579 19.365 20.9779 19.83 22.3879 19.83L22.2529 21.135C19.8529 21.045 18.0979 21 16.9879 21L12.6679 21.135L12.8029 19.83C14.3929 19.83 15.1879 19.515 15.1879 18.885C15.1879 18.675 13.7479 16.635 10.8679 12.765C7.80789 16.725 6.27789 18.78 6.27789 18.93Z" fill="black"/>
<path d="M9.06789 19.83L10.0472 20.0326L10.296 18.83H9.06789V19.83ZM8.79789 21.135L8.73281 22.1329L9.6009 22.1895L9.77715 21.3376L8.79789 21.135ZM5.01789 21V20H5.00243L4.98698 20.0005L5.01789 21ZM0.652891 21.135L-0.341801 21.0321L-0.459503 22.1699L0.683804 22.1345L0.652891 21.135ZM0.787891 19.83V18.83H-0.113998L-0.206801 19.7271L0.787891 19.83ZM2.49789 19.515L2.02379 18.6345L2.00876 18.6426L1.99402 18.6512L2.49789 19.515ZM3.62289 18.57L4.38215 19.2208L4.39365 19.2074L4.40467 19.1936L3.62289 18.57ZM9.65289 11.01L10.4347 11.6336L10.8974 11.0535L10.4763 10.4425L9.65289 11.01ZM4.16289 3.045L3.33539 3.60652L3.33953 3.61251L4.16289 3.045ZM1.55289 1.785L0.558199 1.8879L0.651002 2.785H1.55289V1.785ZM1.41789 0.48L1.45536 -0.519299L0.304715 -0.562449L0.423199 0.582897L1.41789 0.48ZM6.68289 0.615V1.615H6.70053L6.71816 1.61438L6.68289 0.615ZM10.5079 0.48L11.5026 0.3771L11.4064 -0.552338L10.4726 -0.519379L10.5079 0.48ZM10.6429 1.785V2.785H11.7517L11.6376 1.6821L10.6429 1.785ZM12.1729 8.625L11.357 9.2032L12.1543 10.3283L12.976 9.22085L12.1729 8.625ZM14.0179 1.785L13.0232 1.8879L13.116 2.785H14.0179V1.785ZM13.8829 0.48L13.944 -0.518133L12.7668 -0.590204L12.8882 0.582897L13.8829 0.48ZM17.7979 0.615V1.615H17.8162L17.8345 1.61433L17.7979 0.615ZM21.4879 0.48L22.4826 0.3771L22.3863 -0.553539L21.4513 -0.519333L21.4879 0.48ZM21.6229 1.785L21.7059 2.78155L22.7226 2.69683L22.6176 1.6821L21.6229 1.785ZM18.8779 3.315L18.0995 2.68725L18.0926 2.69583L18.0858 2.70456L18.8779 3.315ZM13.4329 10.38L12.6408 9.76956L12.1823 10.3645L12.6259 10.9706L13.4329 10.38ZM19.3279 18.435L20.1558 17.8742L20.1456 17.8591L20.1349 17.8444L19.3279 18.435ZM22.3879 19.83L23.3826 19.9329L23.4967 18.83H22.3879V19.83ZM22.2529 21.135L22.2154 22.1343L23.1512 22.1694L23.2476 21.2379L22.2529 21.135ZM16.9879 21V20H16.9723L16.9567 20.0005L16.9879 21ZM12.6679 21.135L11.6732 21.0321L11.5555 22.1702L12.6991 22.1345L12.6679 21.135ZM12.8029 19.83V18.83H11.901L11.8082 19.7271L12.8029 19.83ZM10.8679 12.765L11.6701 12.168L10.8829 11.1101L10.0766 12.1536L10.8679 12.765ZM5.27789 18.93C5.27789 19.9134 6.0916 20.3706 6.66839 20.5567C7.28561 20.7558 8.10991 20.83 9.06789 20.83V18.83C8.16587 18.83 7.59517 18.7542 7.28239 18.6533C7.12775 18.6034 7.11228 18.5709 7.14769 18.6051C7.20914 18.6646 7.27789 18.7864 7.27789 18.93H5.27789ZM8.08863 19.6274L7.81863 20.9324L9.77715 21.3376L10.0472 20.0326L8.08863 19.6274ZM8.86297 20.1371C7.46568 20.046 6.18358 20 5.01789 20V22C6.1322 22 7.3701 22.044 8.73281 22.1329L8.86297 20.1371ZM4.98698 20.0005L0.621978 20.1355L0.683804 22.1345L5.0488 21.9995L4.98698 20.0005ZM1.64758 21.2379L1.78258 19.9329L-0.206801 19.7271L-0.341801 21.0321L1.64758 21.2379ZM0.787891 20.83C1.61488 20.83 2.40604 20.7263 3.00176 20.3788L1.99402 18.6512C1.86974 18.7237 1.5209 18.83 0.787891 18.83V20.83ZM2.97199 20.3955C3.49361 20.1146 3.96123 19.7119 4.38215 19.2208L2.86363 17.9192C2.56455 18.2681 2.28217 18.4954 2.02379 18.6345L2.97199 20.3955ZM4.40467 19.1936L10.4347 11.6336L8.87112 10.3864L2.84111 17.9464L4.40467 19.1936ZM10.4763 10.4425L4.98625 2.47748L3.33953 3.61251L8.82953 11.5775L10.4763 10.4425ZM4.99037 2.4835C4.20358 1.32403 2.9957 0.785 1.55289 0.785V2.785C2.45008 2.785 2.9822 3.08597 3.33541 3.6065L4.99037 2.4835ZM2.54758 1.6821L2.41258 0.3771L0.423199 0.582897L0.558199 1.8879L2.54758 1.6821ZM1.38042 1.4793C3.78203 1.56936 5.55289 1.615 6.68289 1.615V-0.385C5.59289 -0.385 3.85376 -0.429359 1.45536 -0.519299L1.38042 1.4793ZM6.71816 1.61438L10.5432 1.47938L10.4726 -0.519379L6.64762 -0.384378L6.71816 1.61438ZM9.5132 0.582897L9.6482 1.8879L11.6376 1.6821L11.5026 0.3771L9.5132 0.582897ZM10.6429 0.785C9.77096 0.785 9.0017 0.859278 8.41655 1.06826C8.11895 1.17454 7.80117 1.33911 7.54934 1.60893C7.27647 1.90129 7.12289 2.27453 7.12289 2.685H9.12289C9.12289 2.79547 9.07431 2.90621 9.01145 2.97357C8.96961 3.01839 8.96683 2.99545 9.08923 2.95174C9.34408 2.86072 9.83482 2.785 10.6429 2.785V0.785ZM7.12289 2.685C7.12289 2.84614 7.16205 2.97043 7.17419 3.00846C7.19199 3.06426 7.21157 3.1108 7.22527 3.14155C7.25303 3.20384 7.2848 3.26368 7.31202 3.31267C7.3682 3.4138 7.44352 3.53735 7.53138 3.67596C7.70924 3.9566 7.96989 4.34823 8.30916 4.84584C8.9894 5.84351 10.0061 7.29695 11.357 9.2032L12.9888 8.0468C11.6397 6.14305 10.6314 4.70149 9.96162 3.71916C9.6259 3.22677 9.38029 2.85715 9.22066 2.60529C9.13976 2.47765 9.08852 2.39214 9.06033 2.34139C9.04536 2.31445 9.04549 2.31264 9.05215 2.32759C9.0553 2.33467 9.06697 2.36111 9.0795 2.40038C9.08637 2.42189 9.12289 2.53324 9.12289 2.685H7.12289ZM12.976 9.22085C14.3574 7.359 15.3986 5.92937 16.0962 4.93597C16.444 4.44082 16.7134 4.04414 16.8985 3.75231C16.9899 3.60822 17.0703 3.47485 17.1311 3.36054C17.1609 3.3045 17.1952 3.23592 17.2246 3.16273C17.2395 3.1258 17.3129 2.95078 17.3129 2.73H15.3129C15.3129 2.61318 15.3347 2.52648 15.3434 2.49435C15.3541 2.45456 15.3648 2.4272 15.3688 2.41715C15.3766 2.39764 15.3786 2.39643 15.3653 2.42149C15.3398 2.46936 15.2908 2.55303 15.2098 2.68082C15.0499 2.93274 14.8018 3.29918 14.4595 3.78653C13.7772 4.75813 12.7484 6.171 11.3698 8.02915L12.976 9.22085ZM17.3129 2.73C17.3129 2.35246 17.192 1.9904 16.9467 1.68736C16.7146 1.4006 16.4126 1.21709 16.1199 1.09657C15.5536 0.863411 14.8216 0.785 14.0179 0.785V2.785C14.7442 2.785 15.1596 2.86409 15.3584 2.94593C15.4482 2.98291 15.4331 2.99627 15.3922 2.94576C15.3381 2.87897 15.3129 2.79254 15.3129 2.73H17.3129ZM15.0126 1.6821L14.8776 0.3771L12.8882 0.582897L13.0232 1.8879L15.0126 1.6821ZM13.8218 1.47813C15.3066 1.56904 16.6326 1.615 17.7979 1.615V-0.385C16.6831 -0.385 15.3992 -0.429039 13.944 -0.518133L13.8218 1.47813ZM17.8345 1.61433L21.5245 1.47933L21.4513 -0.519333L17.7613 -0.384333L17.8345 1.61433ZM20.4932 0.582897L20.6282 1.8879L22.6176 1.6821L22.4826 0.3771L20.4932 0.582897ZM21.5398 0.788454C20.158 0.903608 19.0017 1.56854 18.0995 2.68725L19.6563 3.94275C20.2541 3.20146 20.9278 2.84639 21.7059 2.78155L21.5398 0.788454ZM18.0858 2.70456L12.6408 9.76956L14.225 10.9904L19.67 3.92544L18.0858 2.70456ZM12.6259 10.9706L18.5209 19.0256L20.1349 17.8444L14.2399 9.78942L12.6259 10.9706ZM18.5 18.9958C19.3639 20.2711 20.7417 20.83 22.3879 20.83V18.83C21.2141 18.83 20.5519 18.4589 20.1558 17.8742L18.5 18.9958ZM21.3932 19.7271L21.2582 21.0321L23.2476 21.2379L23.3826 19.9329L21.3932 19.7271ZM22.2904 20.1357C19.8888 20.0456 18.1179 20 16.9879 20V22C18.0779 22 19.817 22.0444 22.2154 22.1343L22.2904 20.1357ZM16.9567 20.0005L12.6367 20.1355L12.6991 22.1345L17.0191 21.9995L16.9567 20.0005ZM13.6626 21.2379L13.7976 19.9329L11.8082 19.7271L11.6732 21.0321L13.6626 21.2379ZM12.8029 20.83C13.6346 20.83 14.3838 20.7517 14.96 20.5234C15.2565 20.406 15.565 20.2264 15.8041 19.9422C16.0584 19.6399 16.1879 19.2728 16.1879 18.885H14.1879C14.1879 18.8122 14.218 18.7208 14.2736 18.6547C14.3139 18.6068 14.3243 18.624 14.2233 18.6641C14.0045 18.7508 13.5612 18.83 12.8029 18.83V20.83ZM16.1879 18.885C16.1879 18.6584 16.1101 18.4786 16.0962 18.4446C16.0662 18.3714 16.0311 18.3025 16.0005 18.2458C15.9381 18.13 15.8552 17.9938 15.7602 17.8453C15.5678 17.5448 15.2875 17.1345 14.9249 16.6208C14.1975 15.5903 13.1114 14.1048 11.6701 12.168L10.0657 13.362C11.5043 15.2952 12.5783 16.7647 13.2909 17.7742C13.6483 18.2805 13.908 18.6615 14.0756 18.9234C14.1606 19.0563 14.2127 19.1441 14.2402 19.1952C14.2547 19.2219 14.2534 19.2221 14.2458 19.2037C14.242 19.1944 14.2311 19.1672 14.2201 19.1273C14.2114 19.096 14.1879 19.0063 14.1879 18.885H16.1879ZM10.0766 12.1536C8.54569 14.1347 7.39378 15.6442 6.62329 16.6791C6.23895 17.1953 5.94412 17.6006 5.74318 17.8902C5.64392 18.0333 5.55921 18.16 5.4962 18.2632C5.46575 18.3131 5.4301 18.374 5.39881 18.4375C5.38345 18.4687 5.36088 18.517 5.34011 18.5755C5.32697 18.6125 5.27789 18.75 5.27789 18.93H7.27789C7.27789 19.1006 7.2318 19.2251 7.22463 19.2452C7.20984 19.2869 7.19624 19.3146 7.19283 19.3216C7.18545 19.3365 7.18565 19.3341 7.20302 19.3057C7.23563 19.2523 7.29436 19.163 7.38635 19.0304C7.56791 18.7687 7.84684 18.3847 8.22749 17.8734C8.987 16.8533 10.1301 15.3553 11.6592 13.3764L10.0766 12.1536Z" fill="black"/>
</svg>
